<?xml version="1.0" standalone="no"?>
<!DOCTYPE svg PUBLIC "-//W3C//DTD SVG 1.1//EN" "http://www.w3.org/Graphics/SVG/1.1/DTD/svg11.dtd" >
<svg xmlns="http://www.w3.org/2000/svg">
<metadata>Generated by IcoMoon</metadata>
<defs>
<font id="trinnk_fonticons" horiz-adv-x="1024">
<font-face units-per-em="1024" ascent="960" descent="-64" />
<missing-glyph horiz-adv-x="1024" />
<glyph unicode="&#x20;" horiz-adv-x="512" d="" />
<glyph unicode="&#xe900;" glyph-name="turkish-lira" d="M338.92-64c-4.164 1.587-8.332 3.171-13.445 5.117 0 167.649 0 335.234 0 505.132-65.126-23.18-128.55-45.756-194.714-69.308 0 26.641-0.553 51.292 0.567 75.875 0.177 3.925 7.233 9.196 12.151 11.001 52.78 19.333 105.448 39.083 158.87 56.494 19.084 6.219 27.139 15.241 23.671 34.806-0.87 4.915-0.13 10.121-0.13 17.708-65.184-23.385-128.751-46.182-195.13-69.994 0 28.273-0.543 53.074 0.58 77.8 0.171 3.755 7.53 8.694 12.5 10.482 56.091 20.186 112.343 39.933 168.619 59.614 7.922 2.772 13.742 5.253 13.674 15.985-0.635 97.761-0.662 195.523-0.867 293.287 34.133 0 68.267 0 102.4 0 0.498-11.875 1.399-23.753 1.423-35.628 0.137-69.97 0.068-139.943 0.068-209.913 0-6.096 0-12.192 0-20.954 105.414 38.079 208.172 75.203 312.641 112.944 0-26.201 0.768-50.087-0.638-73.847-0.283-4.809-7.956-11.302-13.568-13.363-88.525-32.567-177.248-64.587-265.964-96.618-35.891-12.957-35.936-12.831-30.74-55.217 103.369 37.28 206.063 74.312 310.828 112.101 0-26.033 0.782-50.848-0.727-75.527-0.27-4.413-9.445-9.892-15.517-12.093-89.201-32.355-178.599-64.157-267.882-96.28-35.079-12.623-28.245-7.878-28.317-40.26-0.287-129.703-0.119-259.403-0.119-389.106 0-6.717 0-13.435 0-20.142 127.546 2.092 357.758 137.424 358.967 401.541 33.768 0 67.56 0 105.25 0-3.314-30.095-4.451-60.14-10.172-89.286-44.493-226.659-221.16-391.12-449.318-419.526-3.273-0.406-6.42-1.857-9.626-2.819-28.447-0.003-56.893-0.003-85.337-0.003v0z" />
<glyph unicode="&#xe901;" glyph-name="full-size" d="M35.663 650.503c19.7 0 35.663 15.967 35.663 35.663v152.057l229.693-229.645c6.966-6.961 16.091-10.442 25.216-10.442 9.13 0 18.259 3.481 25.221 10.447 13.928 13.928 13.928 36.509-0.005 50.432l-229.702 229.65h152.090c19.695 0 35.663 15.967 35.663 35.663s-15.963 35.663-35.663 35.663h-238.176c-19.7 0-35.663-15.967-35.663-35.663v-238.166c0-19.691 15.963-35.658 35.663-35.658zM988.337 245.497c-19.7 0-35.663-15.967-35.663-35.663v-152.062l-236.763 236.763c-13.932 13.928-36.509 13.928-50.437 0s-13.928-36.509 0-50.432l236.759-236.759h-152.052c-19.7 0-35.663-15.967-35.663-35.663s15.963-35.663 35.663-35.663h238.161c19.7 0 35.663 15.967 35.663 35.663v238.152c-0.005 19.695-15.972 35.663-35.668 35.663zM308.089 294.536l-236.74-236.759v152.057c0 19.695-15.963 35.663-35.663 35.663s-35.663-15.967-35.663-35.663v-238.161c0-19.695 15.963-35.663 35.663-35.663h238.152c19.695 0 35.663 15.967 35.663 35.663s-15.963 35.663-35.663 35.663h-152.057l236.744 236.768c13.928 13.928 13.928 36.509-0.005 50.437-13.918 13.923-36.5 13.923-50.432-0.005zM988.337 959.99h-238.161c-19.7 0-35.663-15.967-35.663-35.663s15.963-35.663 35.663-35.663h152.062l-229.659-229.674c-13.928-13.928-13.928-36.509 0.005-50.437 6.961-6.961 16.091-10.442 25.216-10.442s18.255 3.485 25.221 10.447l229.659 229.674v-152.066c0-19.695 15.963-35.663 35.663-35.663s35.663 15.967 35.663 35.663v238.161c-0.005 19.7-15.972 35.663-35.668 35.663z" />
<glyph unicode="&#xe902;" glyph-name="smartphone" d="M736 960h-448c-52.8 0-96-43.2-96-96v-832c0-52.8 43.2-96 96-96h448c52.8 0 96 43.2 96 96v832c0 52.8-43.2 96-96 96zM384 912h256v-32h-256v32zM512 0c-35.346 0-64 28.654-64 64s28.654 64 64 64 64-28.654 64-64-28.654-64-64-64zM768 192h-512v640h512v-640z" />
<glyph unicode="&#xe903;" glyph-name="whatsapp-logo" d="M1024 461.187c0-275.49-225.041-498.813-502.693-498.813-88.144 0-170.951 22.528-242.995 62.066l-278.312-88.439 90.738 267.628c-45.773 75.162-72.135 163.317-72.135 257.559 0 275.49 225.064 498.813 502.704 498.813 277.675 0 502.693-223.323 502.693-498.813zM521.307 880.56c-233.062 0-422.639-188.132-422.639-419.374 0-91.762 29.912-176.742 80.509-245.874l-52.804-155.75 162.418 51.621c66.731-43.816 146.671-69.37 232.528-69.37 233.028 0 422.639 188.109 422.639 419.351s-189.599 419.396-422.65 419.396zM775.157 346.305c-3.106 5.086-11.31 8.158-23.62 14.268-12.334 6.11-72.932 35.703-84.196 39.765-11.298 4.073-19.536 6.121-27.739-6.11-8.203-12.242-31.824-39.765-39.026-47.923-7.191-8.181-14.37-9.205-26.704-3.083-12.311 6.11-52.008 19.035-99.078 60.678-36.625 32.404-61.36 72.408-68.551 84.662-7.179 12.231-0.751 18.842 5.404 24.929 5.552 5.484 12.334 14.279 18.489 21.413 6.178 7.145 8.226 12.231 12.311 20.4 4.13 8.158 2.071 15.292-1.024 21.424-3.072 6.11-27.739 66.276-38.002 90.761-10.263 24.462-20.514 20.389-27.716 20.389-7.179 0-15.406 1.024-23.62 1.024s-21.572-3.061-32.87-15.292c-11.287-12.242-43.11-41.825-43.11-101.979 0-60.166 44.134-118.295 50.313-126.441 6.155-8.146 85.22-135.623 210.489-184.582 125.281-48.936 125.281-32.609 147.877-30.561 22.574 2.037 72.886 29.571 83.194 58.106 10.24 28.581 10.24 53.055 7.179 58.152z" />
<glyph unicode="&#xe904;" glyph-name="up-arrow" d="M962.878 210.654c-12.701-12.701-33.34-12.701-46.040 0l-404.837 405.631-405.631-405.631c-12.701-12.701-33.34-12.701-46.040 0s-12.701 33.34 0 46.040l427.857 427.857c6.35 6.35 14.288 9.526 23.020 9.526 7.938 0 16.67-3.175 23.020-9.526l427.857-427.857c13.495-12.701 13.495-33.34 0.794-46.040z" />
<glyph unicode="&#xe905;" glyph-name="phone-receiver" d="M1023.511 152.060c2.17-16.624-2.896-31.077-15.177-43.361l-144.177-143.088c-6.504-7.227-14.994-13.375-25.473-18.429-10.479-5.061-20.776-8.313-30.89-9.756-0.723 0-2.896-0.186-6.511-0.547-3.608-0.36-8.306-0.544-14.087-0.544-13.735 0-35.959 2.349-66.674 7.048s-68.293 16.264-112.734 34.689c-44.453 18.429-94.859 46.075-151.227 82.929-56.368 36.852-116.353 87.444-179.95 151.765-50.588 49.866-92.504 97.563-125.748 143.091-33.244 45.531-59.983 87.628-80.219 126.292-20.237 38.664-35.414 73.714-45.531 105.152s-16.983 58.538-20.597 81.303-5.059 40.651-4.336 53.66c0.723 13.008 1.084 20.235 1.084 21.681 1.445 10.118 4.697 20.416 9.756 30.895s11.202 18.971 18.429 25.475l144.177 144.177c10.118 10.118 21.681 15.177 34.689 15.177 9.395 0 17.706-2.71 24.933-8.13s13.37-12.105 18.429-20.055l115.992-220.059c6.504-11.563 8.311-24.21 5.42-37.941s-9.034-25.294-18.429-34.689l-53.118-53.118c-1.445-1.445-2.71-3.794-3.794-7.046s-1.626-5.962-1.626-8.13c2.891-15.177 9.395-32.521 19.513-52.034 8.672-17.345 22.042-38.483 40.109-63.416s43.723-53.658 76.967-86.179c32.521-33.247 61.429-59.080 86.723-77.512 25.289-18.422 46.435-31.977 63.418-40.65s29.992-13.912 39.024-15.713l13.547-2.712c1.445 0 3.799 0.544 7.048 1.626 3.252 1.086 5.601 2.349 7.048 3.796l61.788 62.874c13.016 11.561 28.185 17.343 45.531 17.343 12.289 0 22.040-2.166 29.267-6.504h1.082l209.217-123.58c15.182-9.402 24.214-21.323 27.106-35.777z" />
<glyph unicode="&#xe906;" d="M281.6 430.933h170.667v-102.4h-170.667v102.4z" />
<glyph unicode="&#xe907;" d="M59.733 960c-9.421 0-17.067-7.629-17.067-17.067v-989.867c0-9.438 7.646-17.067 17.067-17.067s17.067 7.629 17.067 17.067v989.867c0 9.438-7.646 17.067-17.067 17.067z" />
<glyph unicode="&#xe908;" d="M76.8 891.733h375.467v-494.933h-375.467v494.933z" />
<glyph unicode="&#xe909;" d="M452.267 806.4v-409.6h-102.4c-37.7 0-68.267-30.566-68.267-68.267s30.566-68.267 68.267-68.267h631.467l-187.733 273.067 187.733 273.067h-529.067z" />
<glyph unicode="&#xe90a;" d="M281.6 328.533c0-37.7 30.566-68.267 68.267-68.267h102.4v136.533h-102.4c-37.7 0-68.267-30.566-68.267-68.267z" />
<glyph unicode="&#xe90b;" glyph-name="paper-plane" d="M1013.79 831.167l-997.837-360.593c-18.514-6.732-21.669-31.557-5.47-42.497l149.16-101.824 677.006 357.017-573.078-427.915v-173.354c0-11.781 13.254-18.934 23.142-12.412l126.229 83.732 124.335-84.784c11.361-7.784 26.929-4.418 34.292 7.363l451.267 744.118c3.787 6.101-2.314 13.675-9.046 11.15z" />
<glyph unicode="&#xe90c;" glyph-name="scroll-up" d="M894.031 593.723l-354.462 354.462c-7.877 7.877-15.754 11.815-27.569 11.815s-19.692-3.938-27.569-11.815l-354.462-354.462c-7.877-7.877-11.815-15.754-11.815-27.569s3.938-19.692 11.815-27.569l55.138-55.138c15.754-15.754 39.385-15.754 55.138 0l157.538 157.538c11.815 11.815 35.446 3.938 35.446-15.754v-649.846c0-23.631 15.754-39.385 39.385-39.385h78.769c23.631 0 39.385 15.754 39.385 39.385v653.785c0 15.754 19.692 27.569 35.446 15.754l157.538-157.538c15.754-15.754 39.385-15.754 55.138 0l55.138 55.138c7.877 7.877 11.815 15.754 11.815 27.569 0 7.877-3.938 15.754-11.815 23.631z" />
<glyph unicode="&#xe90d;" glyph-name="right-arrow" d="M320.695-2.878c-6.35-6.35-14.288-9.526-23.020-9.526s-16.67 3.175-23.020 9.526c-12.701 12.701-12.701 33.34 0 46.040l404.837 404.837-404.837 404.837c-12.701 12.701-12.701 33.34 0 46.040s33.34 12.701 46.040 0l427.857-427.857c12.701-12.701 12.701-33.34 0-46.040l-427.857-427.857z" />
<glyph unicode="&#xe90e;" glyph-name="down-arrow" d="M962.878 685.346c-12.701 12.701-33.34 12.701-46.040 0l-404.837-405.631-405.631 405.631c-12.701 12.701-33.34 12.701-46.040 0s-12.701-33.34 0-46.040l427.857-427.857c6.35-6.35 14.288-9.526 23.020-9.526 7.938 0 16.67 3.175 23.020 9.526l427.857 427.857c13.495 12.701 13.495 33.34 0.794 46.040z" />
<glyph unicode="&#xe90f;" glyph-name="left-arrow" d="M703.305-2.878c6.35-6.35 14.288-9.526 23.020-9.526s16.67 3.175 23.020 9.526c12.701 12.701 12.701 33.34 0 46.040l-404.837 404.837 404.837 404.837c12.701 12.701 12.701 33.34 0 46.040s-33.34 12.701-46.040 0l-428.651-427.857c-12.701-12.701-12.701-33.34 0-46.040l428.651-427.857z" />
<glyph unicode="&#xe910;" glyph-name="furniture" d="M750.685 199.602h-477.339c-8.564 0-15.515 6.951-15.515 15.515v252.028c0 70.439-57.313 127.69-127.721 127.69-54.644 0-99.080-44.404-99.080-99.049 0-42.015 34.164-76.148 76.148-76.148 31.868 0 57.809 25.941 57.809 57.809 0 23.8-19.363 43.163-43.163 43.163-8.564 0-15.515 6.951-15.515 15.515s6.951 15.515 15.515 15.515c40.898 0 74.193-33.264 74.193-74.193 0-48.997-39.843-88.84-88.84-88.84-59.082 0-107.179 48.097-107.179 107.179 0 71.742 58.368 130.079 130.079 130.079 87.536 0 158.751-71.215 158.751-158.72v-236.513h446.34v236.513c0 87.505 71.215 158.72 158.72 158.72 71.742 0 130.079-58.368 130.079-130.079 0-59.082-48.097-107.179-107.179-107.179-48.966 0-88.809 39.843-88.809 88.84 0 40.898 33.264 74.193 74.162 74.193 8.564 0 15.515-6.951 15.515-15.515s-6.951-15.515-15.515-15.515c-23.8 0-43.132-19.363-43.132-43.163 0-31.868 25.91-57.809 57.778-57.809 42.015 0 76.148 34.164 76.148 76.148 0 54.644-44.435 99.049-99.049 99.049-70.439 0-127.69-57.282-127.69-127.69v-252.028c0-8.564-6.92-15.515-15.515-15.515zM871.672 50.688h-715.962c-35.312 0-64.016 28.734-64.016 64.016v289.389c0 8.564 6.951 15.515 15.515 15.515s15.515-6.951 15.515-15.515v-289.389c0-18.184 14.832-32.985 32.985-32.985h715.962c18.184 0 32.985 14.832 32.985 32.985v289.389c0 8.564 6.951 15.515 15.515 15.515s15.515-6.951 15.515-15.515v-289.389c0-35.281-28.703-64.016-64.016-64.016zM750.685 330.985h-477.339c-8.564 0-15.515 6.951-15.515 15.515s6.951 15.515 15.515 15.515h477.37c8.564 0 15.515-6.951 15.515-15.515s-6.951-15.515-15.546-15.515zM273.346 0.326c-8.564 0-15.515 6.951-15.515 15.515v38.074c0 8.564 6.951 15.515 15.515 15.515s15.515-6.951 15.515-15.515v-38.074c0-8.564-6.951-15.515-15.515-15.515zM750.685 0.326c-8.564 0-15.515 6.951-15.515 15.515v38.074c0 8.564 6.951 15.515 15.515 15.515s15.515-6.951 15.515-15.515v-38.074c0-8.564-6.92-15.515-15.515-15.515zM855.288 594.835c-8.564 0-15.515 6.951-15.515 15.515v101.128c0 84.464-68.701 153.166-153.166 153.166h-345.895c-84.464 0-153.166-68.701-153.166-153.166v-101.128c0-8.564-6.951-15.515-15.515-15.515s-15.515 6.951-15.515 15.515v101.128c0 101.531 82.634 184.196 184.196 184.196h345.895c101.531 0 184.196-82.634 184.196-184.196v-101.128c0-8.564-6.92-15.515-15.515-15.515z" />
<glyph unicode="&#xe911;" glyph-name="search" d="M991.284 27.298l-243.714 253.474c62.663 74.491 96.997 168.216 96.997 265.788 0 227.967-185.473 413.44-413.44 413.44s-413.44-185.473-413.44-413.44 185.473-413.44 413.44-413.44c85.582 0 167.137 25.813 236.865 74.815l245.565-255.398c10.264-10.66 24.069-16.538 38.863-16.538 14.003 0 27.287 5.339 37.371 15.046 21.427 20.618 22.11 54.808 1.492 76.253zM431.128 852.146c168.504 0 305.586-137.082 305.586-305.586s-137.082-305.586-305.586-305.586-305.586 137.082-305.586 305.586 137.082 305.586 305.586 305.586z" />
<glyph unicode="&#xe912;" glyph-name="rewind" d="M157.51 448.029l396.1 401.786c24.997 25.188 24.997 66.1 0 91.288s-65.462 25.188-90.395 0l-441.040-447.433c-23.971-24.226-24.099-66.998 0-91.352l441.104-447.433c24.933-25.188 65.462-25.188 90.395 0 24.997 25.188 24.997 66.1 0 91.288l-396.164 401.855zM605.007 448.029l396.1 401.786c24.997 25.188 24.997 66.1 0 91.288s-65.462 25.188-90.395 0l-441.040-447.433c-23.971-24.226-24.099-66.998 0-91.352l441.040-447.433c24.997-25.188 65.462-25.188 90.395 0 24.997 25.188 24.997 66.1 0 91.288l-396.1 401.855z" />
<glyph unicode="&#xe913;" glyph-name="fast-forward" d="M1001.882 493.647l-441.132 447.461c-24.935 25.19-65.466 25.19-90.401 0-24.998-25.19-24.998-66.104 0-91.294l396.125-401.811-396.125-401.811c-24.998-25.19-24.998-66.104 0-91.294s65.466-25.19 90.401 0l441.068 447.461c24.1 24.222 24.164 66.992 0.064 91.288zM554.357 493.647l-441.068 447.461c-24.998 25.19-65.466 25.19-90.401 0-24.998-25.19-24.998-66.104 0-91.294l396.061-401.811-396.125-401.811c-24.998-25.19-24.998-66.104 0-91.294s65.466-25.19 90.401 0l441.068 447.461c24.1 24.222 24.164 66.992 0.064 91.288z" />
<glyph unicode="&#xe914;" glyph-name="back" d="M245.060 411.451l460.488-460.335c20.206-20.155 52.943-20.155 73.2 0 20.206 20.155 20.206 52.892 0 73.047l-423.963 423.81 423.912 423.81c20.206 20.155 20.206 52.892 0 73.098-20.206 20.155-52.994 20.155-73.2 0l-460.488-460.331c-19.896-19.947-19.896-53.198 0.051-73.098z" />
<glyph unicode="&#xe915;" glyph-name="next" d="M778.935 484.549l-460.488 460.335c-20.206 20.155-52.943 20.155-73.2 0-20.206-20.155-20.206-52.892 0-73.047l423.963-423.81-423.912-423.81c-20.206-20.155-20.206-52.892 0-73.098 20.206-20.155 52.994-20.155 73.2 0l460.488 460.335c19.9 19.947 19.9 53.198-0.051 73.093z" />
<glyph unicode="&#xe916;" glyph-name="checked" d="M11.815 408.615c-7.877 7.877-11.815 19.692-11.815 27.569s3.938 19.692 11.815 27.569l55.138 55.138c15.754 15.754 39.385 15.754 55.138 0l3.938-3.938 216.615-232.369c7.877-7.877 19.692-7.877 27.569 0l527.754 547.446h3.938c15.754 15.754 39.385 15.754 55.138 0l55.138-55.138c15.754-15.754 15.754-39.385 0-55.138v0l-630.154-653.785c-7.877-7.877-15.754-11.815-27.569-11.815s-19.692 3.938-27.569 11.815l-307.2 330.831-7.877 11.815z" />
<glyph unicode="&#xe917;" glyph-name="play-button" d="M879.393 468.078l-707.064 487.631c-7.485 5.145-17.189 5.681-25.186 1.512-8.022-4.218-13.044-12.508-13.044-21.578v-975.261c0-9.070 5.023-17.384 13.044-21.602 3.56-1.853 7.461-2.779 11.337-2.779 4.852 0 9.679 1.463 13.849 4.316l707.064 487.631c6.607 4.559 10.533 12.044 10.533 20.066s-3.95 15.507-10.533 20.066z" />
<glyph unicode="&#xe918;" glyph-name="exclamation-sign" d="M955.349 705.005c-45.786 78.439-107.891 140.545-186.333 186.328-78.456 45.781-164.101 68.667-257.001 68.667-92.891 0-178.553-22.886-257.003-68.667-78.446-45.776-140.552-107.882-186.338-186.328-45.788-78.451-68.674-164.122-68.674-257.006s22.893-178.546 68.667-257.001c45.783-78.423 107.889-140.545 186.335-186.333 78.451-45.779 164.115-68.667 257.003-68.667s178.562 22.888 257.008 68.667c78.442 45.772 140.545 107.894 186.326 186.333 45.774 78.456 68.658 164.124 68.658 257.001 0.002 92.884-22.884 178.567-68.648 257.006zM597.355 128.67c0-6.232-2.013-11.442-6.008-15.661s-8.887-6.33-14.671-6.33h-128.003c-5.772 0-10.888 2.223-15.33 6.664-4.446 4.444-6.664 9.557-6.664 15.325v126.658c0 5.786 2.218 10.9 6.664 15.344 4.444 4.441 9.557 6.657 15.33 6.657h128.003c5.786 0 10.692-2.118 14.671-6.321 3.995-4.243 6.008-9.445 6.008-15.68v-126.656zM596.014 357.994c-0.448-4.441-2.774-8.331-6.984-11.666-4.233-3.325-9.445-4.985-15.664-4.985h-123.342c-6.225 0-11.559 1.66-16.002 4.985-4.446 3.334-6.671 7.225-6.671 11.666l-11.332 414.010c0 5.343 2.218 9.333 6.66 12.002 4.451 3.552 9.784 5.333 16.004 5.333h146.686c6.225 0 11.554-1.775 15.997-5.333 4.444-2.669 6.65-6.669 6.65-12.002l-12.002-414.010z" />
<glyph unicode="&#xe919;" glyph-name="question-mark-on-a-circular-black-background" d="M955.349 705.005c-45.786 78.439-107.891 140.545-186.333 186.328-78.456 45.781-164.101 68.667-257.001 68.667-92.891 0-178.562-22.886-257.003-68.667-78.446-45.776-140.552-107.882-186.338-186.328-45.788-78.451-68.674-164.122-68.674-257.006 0-92.889 22.893-178.546 68.667-257.001 45.783-78.439 107.889-140.545 186.335-186.333 78.451-45.779 164.115-68.667 257.003-68.667s178.562 22.888 257.008 68.667c78.442 45.772 140.545 107.894 186.326 186.333 45.774 78.449 68.658 164.117 68.658 257.001 0.002 92.893-22.884 178.567-68.648 257.006zM597.355 127.998c0-6.216-2.013-11.332-6.008-15.325-3.979-3.995-9.095-5.994-15.311-5.994h-128.015c-6.221 0-11.334 1.999-15.334 5.994-4.002 3.995-6.001 9.109-6.001 15.325v128.015c0 6.216 1.996 11.332 6.001 15.325 4 3.988 9.114 5.985 15.334 5.985h128.015c6.216 0 11.332-1.996 15.311-5.985 3.995-3.995 6.008-9.109 6.008-15.325v-128.015zM759.683 522.004c-5.562-16.446-11.778-29.898-18.666-40.338-6.886-10.445-16.782-21.114-29.676-31.997-12.866-10.888-23.096-18.671-30.671-23.346-7.542-4.658-18.442-11.005-32.649-18.996-14.671-8.437-26.771-19.442-36.322-33.004-9.557-13.553-14.335-24.548-14.335-32.985 0-6.235-2.013-11.346-6.010-15.344-3.986-3.995-9.1-5.992-15.318-5.992h-128.008c-6.221 0-11.334 1.996-15.334 5.992-4.005 3.998-5.996 9.109-5.996 15.344v24.002c0 29.777 11.659 57.678 34.996 83.67 23.337 26.003 49.004 45.225 77.008 57.671 21.319 9.775 36.436 19.778 45.323 29.998 8.901 10.221 13.345 23.79 13.345 40.67 0 14.671-8.341 27.78-25.011 39.343-16.67 11.552-35.656 17.328-56.996 17.328-23.117 0-42.223-5.336-57.337-16.007-14.671-10.66-33.777-31.108-57.335-61.326-4-5.338-9.557-8.012-16.67-8.012-5.333 0-9.557 1.331-12.665 3.991l-87.994 66.671c-10.221 8.002-11.998 17.331-5.338 28 56.896 94.668 139.338 142.002 247.334 142.002 38.676 0 76.459-9.114 113.346-27.339 36.885-18.216 67.668-43.997 92.342-77.335 24.644-33.326 36.999-69.554 36.999-108.667-0.033-19.554-2.821-37.545-8.36-53.996z" />
<glyph unicode="&#xe91a;" glyph-name="favorite" d="M1024 562.95l-339.132 71.573-172.867 300.413-172.869-300.413-339.132-71.573 232.293-257.239-36.725-344.647 316.433 141.432 316.431-141.432-36.727 344.647z" />
<glyph unicode="&#xe91b;" glyph-name="social-twitter" d="M512 960c-282.782 0-512-229.218-512-512 0-282.784 229.218-512 512-512 282.784 0 512 229.216 512 512 0 282.782-229.216 512-512 512zM512 16c-238.594 0-432 193.404-432 432 0 238.594 193.406 432 432 432 238.596 0 432-193.406 432-432 0-238.596-193.404-432-432-432zM768 618.156c-8.624-5.124-34.496-15.342-58.624-17.906 15.47 8.982 38.376 38.406 44.032 61.78-14.872-10.218-49.032-25.124-65.9-25.124 0 0 0-0.046 0.032-0.078-19.258 21.672-46.324 35.172-76.386 35.172-58.308 0-105.62-50.922-105.62-113.75 0-8.72 0.962-17.19 2.714-25.344h-0.034c-79.124 2.188-171.622 44.892-223.748 118-32-59.704-4.312-126.092 32.030-150.282-12.406-1.032-35.342 1.532-46.122 12.814-0.75-39.594 16.968-92.096 81.47-111.124-12.442-7.22-34.38-5.158-43.968-3.562 3.374-33.5 46.874-77.246 94.404-77.246-16.94-21.068-74.746-59.412-146.282-47.192 48.598-31.878 105.252-50.314 165.218-50.314 170.41 0 302.752 148.718 295.628 332.186 0 0.22-0.062 0.438-0.062 0.626 0 0.5 0.062 1 0.062 1.438 0 0.562-0.062 1.124-0.062 1.718 15.5 11.376 36.31 31.564 51.218 58.188z" />
<glyph unicode="&#xe91c;" glyph-name="social-facebook" d="M512 960c-282.782 0-512-229.218-512-512s229.218-512 512-512c282.782 0 512 229.218 512 512s-229.218 512-512 512zM512 16c-238.594 0-432 193.406-432 432s193.406 432 432 432 432-193.406 432-432-193.406-432-432-432zM633.5 526.376h-89.062v65c0 19.938 20.624 24.562 30.25 24.562 9.562 0 57.534 0 57.534 0v87.718l-65.94 0.344c-89.966 0-110.5-65.406-110.5-107.344v-70.282h-65.282v-90.374h65.282c0-116.032 0-244 0-244h88.656c0 0 0 129.282 0 244h75.312l13.75 90.376z" />
<glyph unicode="&#xe91d;" glyph-name="social-linkedin" d="M512 960c-282.782 0-512-229.218-512-512s229.218-512 512-512c282.782 0 512 229.218 512 512s-229.218 512-512 512zM512 16c-238.594 0-432 193.406-432 432s193.406 432 432 432 432-193.406 432-432-193.406-432-432-432zM256.188 192.218h96v384h-96v-384zM640.188 576.218c-82.188-1.376-122.624-61.282-128-64v64h-96v-384h96v224c0 8.216 20.25 74 96 64 40.688-2.656 62.624-56.468 64-64v-224l95.624-0.438v265.844c-3.374 38.376-22.562 117.22-127.624 118.594zM304.188 704.218c-26.5 0-48-21.468-48-48s21.5-48 48-48 48 21.468 48 48-21.5 48-48 48z" />
<glyph unicode="&#xe91e;" glyph-name="circle" d="M512 960c-282.326 0-512-229.674-512-512s229.674-512 512-512 512 229.674 512 512-229.674 512-512 512z" />
<glyph unicode="&#xe91f;" glyph-name="briefcase" d="M938.666 746.666h-213.332v42.668c0 47.062-38.27 85.334-85.334 85.334h-256c-47.062 0-85.334-38.27-85.334-85.334v-42.666h-213.332c-47.064-0.002-85.334-38.272-85.334-85.334v-128c0-47.064 38.27-85.334 85.334-85.334h341.334v21.334c0 11.792 9.542 21.334 21.334 21.334h128c11.792 0 21.334-9.542 21.334-21.334v-21.334h341.334c47.060 0 85.33 38.27 85.33 85.334v128c0 47.062-38.27 85.332-85.334 85.332zM640 746.666h-256v42.668h256v-42.668zM1012.166 424.98c-7.27 3.604-15.958 2.77-22.376-2.104-15.166-11.48-32.834-17.542-51.126-17.542h-341.33v-64c0-11.792-9.542-21.334-21.334-21.334h-128c-11.792 0-21.334 9.542-21.334 21.334v64h-341.332c-18.292 0-35.958 6.062-51.126 17.542-6.438 4.916-15.104 5.75-22.376 2.104-7.248-3.606-11.832-11-11.832-19.106v-299.208c0-47.062 38.27-85.334 85.334-85.334h853.334c47.062 0 85.334 38.27 85.334 85.334v299.208c-0.002 8.106-4.586 15.5-11.836 19.106z" />
<glyph unicode="&#xe920;" glyph-name="close" d="M602.561 447.989l402.675 402.675c25.018 24.996 25.018 65.554 0 90.551-25.018 25.018-65.533 25.018-90.551 0l-402.675-402.675-402.697 402.675c-25.018 25.018-65.533 25.018-90.551 0-25.018-24.996-25.018-65.554 0-90.551l402.697-402.675-402.697-402.675c-25.018-24.996-25.018-65.554 0-90.551 12.509-12.488 28.903-18.742 45.275-18.742s32.766 6.254 45.275 18.763l402.697 402.675 402.675-402.675c12.509-12.509 28.903-18.763 45.275-18.763s32.766 6.254 45.275 18.763c25.018 24.996 25.018 65.554 0 90.551l-402.675 402.654z" />
<glyph unicode="&#xe921;" glyph-name="menu" d="M59.368 758.119h905.265c32.805 0 59.368 27.053 59.368 60.515 0 33.379-26.563 60.529-59.368 60.529h-905.265c-32.805 0-59.368-27.151-59.368-60.529 0-33.476 26.563-60.515 59.368-60.515zM964.632 508.529h-905.265c-32.805 0-59.368-27.165-59.368-60.529 0-33.49 26.563-60.529 59.368-60.529h905.265c32.805 0 59.368 27.053 59.368 60.529 0 33.365-26.563 60.529-59.368 60.529zM964.632 137.895h-905.265c-32.805 0-59.368-27.165-59.368-60.529 0-33.49 26.563-60.529 59.368-60.529h905.265c32.805 0 59.368 27.081 59.368 60.529 0 33.365-26.563 60.529-59.368 60.529z" />
<glyph unicode="&#xe922;" glyph-name="earth-globe" d="M698.272 397.974c5.728-22.637-56.941-15.456-72.247-36.649-15.316-21.183-52.736-6.95-61.413-2.877s-41.909-9.499-39.004 13.571c2.888 23.078 23.105 24.433 44.786 33.932 21.671 9.489 52.931 41.042 37.571 45.165-72.318 19.398-96.99 87.334-96.99 87.334-4.338 0.816-3.249 48.026-22.026 49.381-18.794 1.362-28.914-5.427-56.358 0-27.46 5.427-21.671 23.071-26.010 61.075-4.328 38.004 11.571 25.788 20.159 37.997 0.751 1.072 1.727 2.028 2.683 2.983-100.55-34.427-173.073-129.826-173.073-241.893 0-0.177 0.010-0.355 0.010-0.532 18.688-1.205 52.719-5.151 54.32-17.971 2.212-17.705 0-39.837 15.493-46.476s19.92 26.559 33.198 17.705c13.278-8.854 48.691-17.377 48.691-33.031 0-15.65-6.639-40.004 0-44.431s33.181-35.41 33.188-39.837c0.010-4.427 9.356-26.938 6.567-35.543-2.311-7.134-13.971-29.286-25.276-39.359 27.86-10.438 57.996-16.183 89.457-16.183 140.971 0 255.659 114.688 255.659 255.659 0 41.748-10.127 81.162-27.948 116.006 1.71-25.999 0.556-49.691 6.25-57.453 24.914-33.925-60.692-57.262-47.688-108.571zM511.99 960c-282.757 0-511.98-229.243-511.98-511.99s229.222-512.010 511.98-512.010 512 229.25 512 512.010-229.239 511.99-512 511.99zM512 139.223c-170.257 0-308.777 138.51-308.777 308.777s138.52 308.777 308.777 308.777 308.777-138.51 308.777-308.777-138.52-308.777-308.777-308.777z" />
<glyph unicode="&#xe923;" glyph-name="speech-bubble" d="M512 960c-282.76 0-512-229.233-512-512s229.24-512 512-512c282.767 0 512 229.233 512 512s-229.233 512-512 512zM305.439 239.015l-126.898-33.995 34.739 129.619c-23.928 41.132-37.722 88.92-37.722 139.941 0 153.858 124.731 278.599 278.606 278.599 153.847 0 278.588-124.741 278.588-278.599s-124.741-278.606-278.588-278.606c-54.711-0.014-105.68 15.801-148.724 43.040zM845.716 151.095l-115.436 30.922c-39.176-24.771-85.531-39.166-135.275-39.166-35.466 0-69.194 7.312-99.837 20.477 153.824 20.139 273.011 151.991 273.011 311.228 0 46.143-10.1 89.948-28.045 129.458 65.477-45.832 108.309-121.758 108.309-207.718 0-46.409-12.538-89.876-34.305-127.298l31.578-117.904z" />
<glyph unicode="&#xe924;" glyph-name="user" d="M511.991 960c-282.76 0-511.988-229.235-511.988-511.995 0-282.753 229.228-512.005 511.988-512.005s512.005 229.252 512.005 512.005c0 282.767-229.245 511.995-512.005 511.995zM513.551 206.455v0.007h-221.828c0 159.937 140.467 159.899 171.638 201.72l3.567 19.070c-43.794 22.194-74.708 75.702-74.708 138.282 0 82.446 53.631 149.294 119.772 149.294s119.772-66.847 119.772-149.294c0-62.048-30.365-115.222-73.575-137.767l4.062-21.671c34.199-39.793 169.993-42.387 169.993-199.641h-218.691z" />
<glyph unicode="&#xe925;" glyph-name="security" d="M512.144 960c-136.761 0-265.35-53.276-362.048-149.974-96.714-96.714-149.959-225.272-149.959-362.033s53.261-265.319 149.959-362.033 225.272-149.959 362.033-149.959c136.746 0 265.335 53.261 362.033 149.959 199.618 199.633 199.618 524.449 0 724.097-96.683 96.699-225.272 149.944-362.018 149.944zM727.896 844.731l-113.453-113.483c-31.466 11.321-64.869 17.557-99.302 17.557-33.888 0-66.761-6.039-97.788-17.027l-115.754 115.769c64.128 33.888 135.944 51.914 210.56 51.914 76.629 0 150.292-19.025 215.737-54.729zM350.909 291.828c-90.539 90.539-90.539 237.879 0 328.418 43.877 43.862 102.208 68.017 164.232 68.017s120.355-24.156 164.217-68.017c90.539-90.539 90.539-237.895 0-328.448-43.862-43.847-102.178-68.017-164.201-68.017-62.039 0-120.37 24.171-164.247 68.048zM125.425 681.24l117.57-117.57c-26.078-66.216-26.925-139.97-2.951-206.792l-124.623-124.638c-35.704 65.444-54.744 139.122-54.744 215.767 0 83.531 22.567 163.566 64.748 233.233zM283.951 58.322l124.986 124.956c33.434-13.001 69.259-20.039 106.219-20.039 37.505 0 73.86 7.189 107.717 20.569l122.504-122.519c-69.652-42.182-149.702-64.748-233.233-64.748-81.533 0-159.706 21.537-228.193 61.782zM911.576 237.568l-120.809 120.809c23.232 65.929 22.37 138.441-2.951 203.78l113.938 113.938c78.718-134.506 81.987-301.326 9.823-438.526z" />
<glyph unicode="&#xe926;" glyph-name="blog-comment-speech-bubble-symbol" d="M633.121 509.661l47.895-27.378 95.821 54.755-143.717 85.54zM923.992 684.208l34.222 61.584c27.362 47.926-51.318 102.681-88.977 123.184-37.659 20.548-123.184 65.037-150.561 13.689l-47.926-82.133c-47.926 10.267-102.681 17.111-157.421 17.111-284.042 0.015-513.329-153.999-513.329-342.219 0-188.19 229.287-342.189 513.329-342.189 0 0 0 0 3.437 0 3.422-41.066-44.489-109.51-112.948-143.717 270.384 0 393.568 201.909 393.568 201.909 136.872 61.599 225.85 164.265 225.85 284.042 6.844 78.68-34.222 150.546-99.244 208.739zM236.116 379.602c-27.378 0-47.911 20.564-47.911 47.941s20.533 47.911 47.911 47.911 47.911-20.533 47.911-47.911c0-27.378-23.925-47.941-47.911-47.941zM362.737 379.602c-27.378 0-47.911 20.564-47.911 47.941s20.533 47.911 47.911 47.911 47.911-20.533 47.911-47.911c0-27.378-20.533-47.941-47.911-47.941zM489.374 379.602c-27.378 0-47.926 20.564-47.926 47.941s20.548 47.911 47.926 47.911 47.911-20.533 47.911-47.911c0-27.378-20.533-47.941-47.911-47.941zM793.964 526.772l-99.244-54.755-82.148-44.473v205.316l136.903 236.131c6.829 13.689 54.755 0 106.073-27.378s85.555-61.584 75.288-75.288l-136.872-239.554z" />
<glyph unicode="&#xe927;" glyph-name="video" d="M512 960c-282.317 0-512-229.683-512-512s229.683-512 512-512 512 229.683 512 512-229.683 512-512 512zM777.609 433.903l-375.467-256c-2.884-1.963-6.246-2.97-9.609-2.97-2.731 0-5.478 0.649-7.97 1.98-5.598 2.953-9.097 8.755-9.097 15.087v512c0 6.332 3.499 12.134 9.097 15.087 5.598 2.97 12.356 2.56 17.596-0.99l375.467-256c4.642-3.174 7.441-8.448 7.441-14.097s-2.799-10.923-7.458-14.097z" />
<glyph unicode="&#xe928;" glyph-name="grid-world" d="M1022.771 482.133c-16.794 255.59-221.047 459.913-476.638 476.706v1.161h-68.267v-1.161c-255.59-16.794-459.913-221.116-476.706-476.706h-1.161v-68.267h1.161c16.794-255.59 221.116-459.844 476.706-476.638v-1.229h68.267v1.229c255.59 16.794 459.844 221.047 476.638 476.638h1.229v68.267h-1.229zM320.512 848.384c-32.973-43.827-60.348-98.782-80.282-161.451h-102.263c44.51 69.427 107.725 125.611 182.545 161.451zM102.263 618.667h120.013c-9.148-43.145-14.95-88.951-16.794-136.533h-135.919c3.618 48.060 14.95 94.003 32.7 136.533zM69.564 413.867h135.919c1.843-47.582 7.646-93.389 16.794-136.533h-120.013c-17.749 42.53-29.082 88.474-32.7 136.533zM137.967 209.067h102.195c19.934-62.669 47.309-117.623 80.35-161.451-74.82 35.84-138.035 91.955-182.545 161.451zM477.867 8.636c-70.178 18.773-130.594 94.14-167.253 200.431h167.253v-200.431zM477.867 277.333h-186.436c-9.626 42.53-15.701 88.474-17.681 136.533h204.117v-136.533zM477.867 482.133h-204.117c1.98 48.060 8.055 94.003 17.681 136.533h186.436v-136.533zM477.867 686.933h-167.253c36.659 106.291 97.075 181.658 167.253 200.363v-200.363zM886.033 686.933h-102.127c-20.002 62.669-47.309 117.623-80.418 161.451 74.752-35.84 138.035-92.023 182.545-161.451zM546.133 887.296c70.11-18.705 130.594-94.071 167.253-200.363h-167.253v200.363zM546.133 618.667h186.368c9.694-42.53 15.633-88.474 17.749-136.533h-204.117v136.533zM546.133 413.867h204.117c-1.98-48.060-8.055-94.003-17.749-136.533h-186.368v136.533zM546.133 8.636v200.431h167.253c-36.659-106.291-97.143-181.658-167.253-200.431zM703.488 47.616c32.973 43.895 60.416 98.782 80.418 161.451h102.127c-44.51-69.495-107.793-125.611-182.545-161.451zM921.737 277.333h-120.013c9.148 43.145 14.95 88.951 16.794 136.533h135.851c-3.55-48.060-14.882-94.003-32.631-136.533zM818.517 482.133c-1.843 47.582-7.646 93.389-16.794 136.533h120.013c17.749-42.53 29.082-88.474 32.7-136.533h-135.919z" />
<glyph unicode="&#xe929;" glyph-name="box-closed" d="M1013.017 762.243l0.7 1.854-501.488 195.904-500.672-197.936-1.635 0.649v-1.269l-0.071-0.039 0.071-0.213v-628.391l502.078-196.8 502.149 196.809v629.894l-1.132-0.462zM511.761 921.488l170.093-60.917-463.679-180.020-157.068 61.957 450.655 178.979zM494.103-19.605l-188.045 75.919-94.372 35.454-165.881 65.44v552.778l164.216-64.776v-138.221l14.635 4.086 9.89-13.59 13.77 3.214 13.336-14.087 11.638 4.010 18.788-18.632v140.858l202.027-79.686v-552.767h-0.002zM512.041 564.621l-183.345 72.336 452.188 183.264 186.492-75.974-455.335-179.625zM978.29 157.208l-448.328-176.814v552.765l448.285 176.838v-552.776l0.043-0.013z" />
<glyph unicode="&#xe92a;" glyph-name="desk" d="M972.8 533.334h-197.734l-41.2 41.2v27.066h153.6c28.264 0.030 51.17 22.936 51.2 51.2v256c-0.030 28.264-22.936 51.17-51.2 51.2h-443.732c-28.264-0.030-51.17-22.936-51.2-51.2v-256c0.030-28.264 22.936-51.17 51.2-51.2h153.6v-27.066l-41.2-41.2h-248.934v324.266c0.006 9.42-7.626 17.062-17.046 17.066-0.006 0-0.014 0-0.020 0h-204.8c-9.42 0.006-17.062-7.626-17.066-17.046 0-0.006 0-0.014 0-0.020v-324.266h-17.068c-28.264-0.030-51.17-22.936-51.2-51.2v-529.066c0-9.428 7.64-17.068 17.066-17.068s17.066 7.64 17.066 17.066v34.134h307.2v-34.134c0-9.426 7.64-17.066 17.066-17.066s17.066 7.64 17.066 17.066v170.666h614.4v-170.666c0-9.426 7.64-17.066 17.066-17.066s17.066 7.64 17.066 17.066v529.068c-0.026 28.264-22.932 51.168-51.196 51.2zM443.734 635.734c-9.424 0.006-17.060 7.644-17.066 17.066v256c0.006 9.422 7.644 17.060 17.066 17.066h443.734c9.422-0.006 17.060-7.644 17.066-17.066v-256c-0.006-9.422-7.644-17.060-17.066-17.066h-443.734zM704.734 555.4l22.066-22.068h-122.4l22.066 22.068c3.202 3.2 5 7.54 5 12.066v34.134h68.266v-34.134c0.002-4.526 1.8-8.866 5.002-12.066zM102.4 840.534h170.666v-307.2h-170.666v307.2zM341.334 21.334h-307.2v102.4h307.2v-102.4zM341.334 157.866h-307.2v102.4h307.2v-102.4zM341.334 294.4h-307.2v102.4h307.2v-102.4zM989.866 157.866h-614.4v238.934h614.4v-238.934zM989.866 430.934h-955.732v51.2c0.006 9.422 7.644 17.060 17.066 17.066h921.6c9.422-0.006 17.060-7.644 17.066-17.066v-51.2zM204.8 362.666h-34.134c-9.426 0-17.066-7.64-17.066-17.066s7.64-17.066 17.066-17.066h34.134c9.426 0 17.066 7.64 17.066 17.066s-7.64 17.066-17.066 17.066zM204.8 226.134h-34.134c-9.426 0-17.066-7.64-17.066-17.066s7.64-17.068 17.066-17.068h34.134c9.426 0 17.066 7.64 17.066 17.066s-7.64 17.068-17.066 17.068zM204.8 89.6h-34.134c-9.426 0-17.066-7.64-17.066-17.066s7.64-17.066 17.066-17.066h34.134c9.426 0 17.066 7.64 17.066 17.066s-7.64 17.066-17.066 17.066zM221.866 806.4h-68.266c-9.426 0-17.066-7.64-17.066-17.066s7.64-17.066 17.066-17.066h68.266c9.426 0 17.066 7.642 17.066 17.066s-7.64 17.066-17.066 17.066zM221.866 738.134h-68.266c-9.426 0-17.066-7.64-17.066-17.066s7.64-17.068 17.066-17.068h68.266c9.426 0 17.066 7.64 17.066 17.066s-7.64 17.068-17.066 17.068zM187.734 669.866c-28.278 0-51.2-22.924-51.2-51.2s22.922-51.2 51.2-51.2c28.276 0 51.2 22.922 51.2 51.2-0.032 28.264-22.936 51.17-51.2 51.2zM187.734 601.6c-9.426 0-17.066 7.64-17.066 17.066s7.64 17.066 17.066 17.066c9.426 0 17.066-7.64 17.066-17.066-0.006-9.422-7.644-17.060-17.066-17.066zM524.072 886.728c-0.002 0.002-0.004 0.004-0.006 0.006-6.66 6.664-17.464 6.666-24.128 0.006-0.002-0.002-0.004-0.004-0.006-0.006l-34.132-34.134c-6.706-6.622-6.774-17.428-0.152-24.132s17.426-6.774 24.132-0.152c0.050 0.050 0.102 0.1 0.152 0.152l34.134 34.132c6.664 6.662 6.666 17.464 0.006 24.128zM626.472 886.728c-0.002 0.002-0.004 0.004-0.006 0.006-6.66 6.664-17.464 6.666-24.128 0.006-0.002-0.002-0.004-0.004-0.006-0.006l-102.4-102.4c-6.706-6.622-6.776-17.426-0.154-24.132s17.426-6.776 24.132-0.154c0.052 0.052 0.104 0.102 0.154 0.154l102.4 102.4c6.666 6.66 6.668 17.462 0.008 24.126z" />
<glyph unicode="&#xe92b;" glyph-name="ventilator" d="M512 530.581c-45.535 0-82.581-37.046-82.581-82.581s37.046-82.581 82.581-82.581c45.535 0 82.581 37.046 82.581 82.581s-37.046 82.581-82.581 82.581zM512 398.452c-27.318 0-49.548 22.231-49.548 49.548s22.231 49.548 49.548 49.548 49.548-22.231 49.548-49.548-22.231-49.548-49.548-49.548zM875.355 563.613h-270.138c-4.773 3.865-9.86 7.35-15.096 10.603 43.982 34.089 70.524 86.528 70.524 143.178v242.605h-115.613c-81.953 0-148.645-66.692-148.645-148.645v-270.138c-3.865-4.773-7.35-9.86-10.603-15.096-34.089 43.982-86.545 70.524-143.178 70.524h-242.605v-115.613c0-81.97 66.692-148.645 148.645-148.645h270.138c4.79-3.865 9.86-7.35 15.096-10.603-43.982-34.089-70.524-86.528-70.524-143.195v-242.589h115.613c81.953 0 148.645 66.676 148.645 148.645v270.138c3.865 4.79 7.35 9.86 10.603 15.096 34.089-43.982 86.528-70.524 143.178-70.524h242.605v115.613c0 81.953-66.692 148.645-148.645 148.645zM429.419 811.355c0 63.752 51.861 115.613 115.613 115.613h82.581v-209.573c0-52.373-27.747-100.335-72.555-127.158-13.642 4.129-28.077 6.408-43.058 6.408-5.582 0-11.082-0.363-16.516-0.974v100.071c0 25.848 12.354 50.556 33.032 66.065l26.426 19.819-19.819 26.426-26.426-19.819c-28.953-21.719-46.245-56.287-46.245-92.49v-107.768c-11.743-4.162-22.858-9.629-33.032-16.467v239.847zM148.645 365.419c-63.752 0-115.613 51.877-115.613 115.613v82.581h209.573c52.373 0 100.335-27.747 127.158-72.555-4.129-13.642-6.408-28.077-6.408-43.058 0-5.582 0.363-11.082 0.974-16.516h-100.071c-25.848 0-50.556 12.354-66.065 33.032l-19.819 26.426-26.426-19.819 19.819-26.426c21.719-28.953 56.287-46.245 92.49-46.245h107.768c4.162-11.743 9.629-22.858 16.467-33.032h-239.847zM594.581 84.645c0-63.736-51.861-115.613-115.613-115.613h-82.581v209.557c0 52.373 27.764 100.352 72.572 127.174 13.626-4.129 28.077-6.408 43.041-6.408 5.582 0 11.082 0.363 16.516 0.974v-100.071c0-25.848-12.354-50.556-33.032-66.065l-26.426-19.819 19.819-26.426 26.426 19.819c28.953 21.702 46.245 56.287 46.245 92.49v107.768c11.743 4.162 22.858 9.629 33.032 16.467v-239.847zM512 332.387c-63.752 0-115.613 51.877-115.613 115.613 0 63.752 51.861 115.613 115.613 115.613s115.613-51.861 115.613-115.613c0-63.736-51.861-115.613-115.613-115.613zM990.968 332.387h-209.573c-52.373 0-100.335 27.747-127.158 72.555 4.129 13.642 6.408 28.077 6.408 43.058 0 5.582-0.363 11.082-0.974 16.516h100.071c25.848 0 50.556-12.354 66.065-33.032l19.819-26.426 26.426 19.803-19.819 26.442c-21.719 28.953-56.287 46.245-92.49 46.245h-107.768c-4.162 11.743-9.629 22.858-16.467 33.032h239.847c63.752 0 115.613-51.861 115.613-115.613v-82.581zM910.716 682.215l28.474 16.764c-54.718 92.953-139.677 166.648-239.236 207.509l-12.536-30.571c92.92-38.119 172.214-106.909 223.298-193.701zM939.916 623.401l30.555 12.552c-4.36 10.603-9.15 21.207-14.237 31.529l-29.613-14.65c4.74-9.629 9.216-19.539 13.295-29.432zM811.751 653.411l27.219 18.696c-35.262 51.382-82.779 94.274-137.381 124.069l-15.822-29.002c50.077-27.318 93.63-66.659 125.985-113.763zM846.468 590.171l30.39 12.949c-4.988 11.71-10.603 23.304-16.681 34.453l-29.002-15.822c5.582-10.223 10.719-20.843 15.294-31.579zM320.644 869.013l-13.692 30.059c-115.349-52.521-205.362-145.953-253.44-263.135l30.571-12.536c44.874 109.37 128.892 196.591 236.561 245.611zM368.475 887.626l-10.24 31.414c-9.15-2.973-18.168-6.227-27.070-9.711l12.040-30.753c8.324 3.254 16.731 6.276 25.27 9.051zM163.823 637.589l29.002-15.822c27.318 50.077 66.676 93.663 113.813 126.002l-18.68 27.252c-51.415-35.278-94.324-82.812-124.135-137.431zM145.21 166.483l-26.195-20.133c53.38-69.467 124.284-123.706 205.048-156.837l12.536 30.555c-75.363 30.935-141.543 81.557-191.389 146.415zM107.074 224.685l-28.903-16.004c6.392-11.561 13.345-23.023 20.645-34.023l27.532 18.234c-6.821 10.29-13.295 20.975-19.274 31.794zM212.249 242.589l-27.219-18.713c35.278-51.349 82.779-94.258 137.381-124.069l15.822 29.002c-50.060 27.334-93.63 66.676-125.985 113.78zM716.8 33.379l14.65-29.613c108.329 53.595 193.222 144.615 239.038 256.281l-30.571 12.552c-42.76-104.233-122.005-189.176-223.116-239.22zM655.509 8.357l10.257-31.381c11.627 3.782 23.123 8.027 34.188 12.585l-12.585 30.555c-10.273-4.261-21.009-8.209-31.86-11.759zM860.177 258.411l-29.002 15.806c-30.472-55.858-75.297-102.962-129.602-136.258l17.259-28.16c59.227 36.319 108.098 87.701 141.345 148.612z" />
<glyph unicode="&#xe92c;" glyph-name="tester" d="M326.432 385.448c-63.165 0-118.807-32.557-151.21-81.748-0.075-0.107-0.186-0.172-0.247-0.289-0.033-0.065-0.033-0.144-0.065-0.21-18.606-28.441-29.532-62.331-29.532-98.779 0-99.8 81.226-181.021 181.035-181.021 74.090 0 137.851 44.805 165.831 108.716 0.033 0.065 0.103 0.126 0.154 0.21 0.047 0.084 0.033 0.191 0.079 0.289 9.574 22.028 14.948 46.306 14.948 71.806 0.009 99.823-81.203 181.026-180.993 181.026zM326.432 352.784c81.795 0 148.339-66.544 148.339-148.357 0-14.179-2.121-27.868-5.845-40.881l-254.929 137.399c27.224 31.676 67.485 51.839 112.435 51.839zM326.432 56.070c-81.809 0-148.371 66.558-148.371 148.353 0 25.076 6.311 48.697 17.348 69.42l261.054-140.699c-25.253-45.887-74.076-77.073-130.030-77.073zM529.159 751.717h-416.495c-9.033 0-16.332-7.322-16.332-16.332v-273.582c0-9.019 7.299-16.332 16.332-16.332h416.495c9.033 0 16.337 7.313 16.337 16.332v273.582c0 9.010-7.322 16.332-16.337 16.332zM512.827 478.135h-383.832v240.918h383.832v-240.918zM314.165 490.17c3.23-3.677 7.742-5.537 12.263-5.537 3.836 0 7.695 1.342 10.799 4.083 6.763 5.957 7.416 16.285 1.468 23.039l-85.91 97.637c-5.98 6.772-16.285 7.425-23.062 1.464-6.763-5.966-7.416-16.285-1.473-23.048l85.915-97.637zM984.69 697.87h-37.772v2.918h19.394c4.978 0 9.699 2.275 12.794 6.171 3.095 3.892 4.241 9.005 3.123 13.852l-30.049 129.783c-1.687 7.206-7.975 12.398-15.376 12.645-7.541 0.303-14.039-4.512-16.173-11.587l-39.366-129.783c-1.496-4.945-0.573-10.305 2.522-14.468 3.062-4.153 7.942-6.605 13.111-6.605h17.371v-2.918h-37.786c-9.028 0-16.332-7.322-16.332-16.332 0-9.019 7.304-16.332 16.332-16.332h37.786v-109.434l-182.429-215.507v421.65h32.109c9.033 0 16.337 7.313 16.337 16.332 0 9.010-7.304 16.332-16.337 16.332h-32.109v2.918h13.731c4.978 0 9.681 2.275 12.776 6.171 3.095 3.892 4.26 9.005 3.127 13.852l-30.049 129.788c-1.687 7.201-7.975 12.393-15.376 12.64-7.369 0.503-14.020-4.512-16.159-11.578l-39.366-129.788c-1.51-4.945-0.573-10.301 2.508-14.468 3.076-4.148 7.942-6.605 13.125-6.605h23.016v-2.918h-43.43c-9.042 0-16.332-7.322-16.332-16.332 0-9.019 7.285-16.332 16.332-16.332h43.43v-605.51h-69.303v608.4c0 36.034-29.299 65.337-65.318 65.337h-476.276c-36.029 0-65.332-29.303-65.332-65.337v-763.501c0-36.029 29.303-65.332 65.332-65.332h476.281c36.020 0 65.318 29.299 65.318 65.332v122.405h85.64c9.042 0 16.332 7.322 16.332 16.337v149.644l211.233 249.504c2.484 2.96 3.859 6.684 3.859 10.552v115.418h37.781c9.033 0 16.337 7.313 16.337 16.332 0 9.014-7.336 16.351-16.364 16.351zM934.161 783.649l11.624-50.198h-26.842l15.218 50.198zM713.405 880.373l11.61-50.198h-26.842l15.232 50.198zM597.204 1.327c0-18.005-14.626-32.668-32.65-32.668h-476.281c-18.014 0-32.668 14.663-32.668 32.668v763.501c0 18.014 14.654 32.668 32.668 32.668h476.281c18.024 0 32.65-14.654 32.65-32.668v-763.501z" />
<glyph unicode="&#xe92d;" glyph-name="technology" d="M836.266 686.934c0 29.014-22.186 51.2-51.2 51.2h-51.2v170.666c0 29.014-22.186 51.2-51.2 51.2s-51.2-22.186-51.2-51.2v-170.666h-238.932v170.666c0 29.014-22.186 51.2-51.2 51.2s-51.2-22.186-51.2-51.2v-170.666h-51.2c-29.014 0-51.2-22.186-51.2-51.2 0-22.982 13.926-41.666 34.134-48.448v-309.952c0-85.334 68.266-153.6 153.6-153.6h51.2v-68.266c0-10.24 6.826-17.066 17.066-17.066h17.066v-68.266c0-10.24 6.826-17.066 17.066-17.066h17.066v-51.2c0-10.24 6.826-17.066 17.066-17.066s17.066 6.826 17.066 17.066v51.2h17.066c10.24 0 17.066 6.826 17.066 17.066v68.264h17.066c10.24 0 17.066 6.826 17.066 17.066v68.266h51.2c85.334 0 153.6 68.266 153.6 153.6v309.952c20.212 6.782 34.138 25.468 34.138 48.45zM665.6 908.8c0 10.24 6.826 17.066 17.066 17.066s17.066-6.826 17.066-17.066v-170.666h-34.132v170.666zM324.266 908.8c0 8.534 6.826 17.066 17.066 17.066s17.066-6.826 17.066-17.066v-170.666h-34.134v170.666zM529.066 38.4h-34.134v51.2h34.134v-51.2zM563.2 123.734h-102.4v51.2h102.4v-51.2zM768 328.534c0-66.56-52.906-119.466-119.466-119.466h-273.066c-66.56 0-119.466 52.906-119.466 119.466v307.2h512v-307.2zM785.066 669.866h-546.132c-10.24 0-17.066 6.826-17.066 17.066s6.826 17.066 17.066 17.066h546.132c10.24 0 17.066-6.826 17.066-17.066s-6.826-17.066-17.066-17.066zM443.734 413.866h95.574l-90.454-90.454c-6.826-6.826-6.826-17.066 0-23.894 3.414-3.414 6.826-5.12 11.946-5.12s8.534 1.706 11.946 5.12l119.466 119.466c5.12 5.12 6.826 11.946 3.414 18.774-1.706 6.826-8.534 10.24-15.36 10.24h-95.574l90.454 90.454c6.826 6.826 6.826 17.066 0 23.894s-17.066 6.826-23.894 0l-119.466-119.466c-5.12-5.12-5.12-11.946-3.414-18.774s8.534-10.24 15.362-10.24z" />
<glyph unicode="&#xe92e;" glyph-name="storage" d="M1007.83-31.664h-70.064v652.126c0 7.054-4.572 13.294-11.298 15.418l-107.792 34.040c-8.52 2.688-17.598-2.036-20.288-10.55-2.688-8.516 2.038-17.598 10.55-20.286l96.494-30.47v-640.276h-75.452v328.756c0 8.93-7.236 16.168-16.168 16.168h-603.622c-8.93 0-16.168-7.24-16.168-16.168v-328.758h-97.012v640.098l414.868 124.46 232.39-73.388c8.522-2.69 17.598 2.036 20.286 10.55 2.69 8.516-2.036 17.596-10.548 20.286l-237.136 74.886c-3.096 0.978-6.412 1.002-9.516 0.068l-280.996-84.3v262.836c0 8.93-7.24 16.168-16.168 16.168-8.93 0-16.168-7.24-16.168-16.168v-272.534l-117.824-35.346c-6.84-2.052-11.522-8.348-11.522-15.488v-652.126h-48.508c-8.93 0-16.168-7.24-16.168-16.168 0-8.93 7.24-16.17 16.168-16.17h689.852c8.932 0 16.168 7.24 16.168 16.168 0 8.93-7.236 16.168-16.168 16.168h-26.948v264.086c0 8.93-7.238 16.168-16.168 16.168s-16.168-7.24-16.168-16.168v-264.084h-118.568v264.084c0 8.93-7.238 16.168-16.168 16.168s-16.168-7.24-16.168-16.168v-264.084h-118.568v264.084c0 8.93-7.24 16.168-16.168 16.168-8.93 0-16.168-7.24-16.168-16.168v-264.084h-118.568v312.588h571.284v-312.59h-26.948c-8.932 0-16.168-7.24-16.168-16.168 0-8.93 7.236-16.168 16.168-16.168h237.136c8.932 0 16.168 7.24 16.168 16.168 0 8.93-7.236 16.168-16.17 16.168zM210.19 485.726c-8.93 0-16.168-7.24-16.168-16.168v-21.558c0-8.93 7.24-16.168 16.168-16.168h603.622c8.932 0 16.168 7.24 16.168 16.168v86.232c0 8.93-7.236 16.168-16.168 16.168h-603.622c-8.93 0-16.168-7.24-16.168-16.168s7.24-16.168 16.168-16.168h286.562c-0.594-1.686-0.92-3.5-0.92-5.39v-48.506h-269.474v5.39c0 8.93-7.24 16.168-16.168 16.168zM797.642 518.064v-53.894h-269.474v48.506c0 1.888-0.324 3.704-0.92 5.39h270.394z" />
<glyph unicode="&#xe92f;" glyph-name="scale" d="M476.070 379.051c0-40.062 32.606-72.686 72.704-72.686 12.252 0 37.744 0 111.329 151.049 4.599 9.45 2.677 20.803-4.743 28.241-7.455 7.42-18.773 9.342-28.259 4.725-151.031-73.62-151.031-99.094-151.031-111.329zM547.175 342.33c-19.025 0.808-34.331 16.115-35.139 35.121 4.401 7.599 30.415 29.265 100.657 65.518-36.235-70.207-57.919-96.238-65.518-100.639zM494.035 510.877h17.965c9.935 0 17.965 8.030 17.965 17.965s-8.030 17.965-17.965 17.965h-17.965c-9.935 0-17.965-8.030-17.965-17.965s8.030-17.965 17.965-17.965zM512 205.474h-17.965c-9.935 0-17.965-8.030-17.965-17.965s8.030-17.965 17.965-17.965h17.965c9.935 0 17.965 8.030 17.965 17.965s-8.030 17.965-17.965 17.965zM350.316 385.123h-17.965c-9.935 0-17.965-8.030-17.965-17.965s8.030-17.965 17.965-17.965h17.965c9.935 0 17.965 8.030 17.965 17.965s-8.030 17.965-17.965 17.965zM655.719 367.158c0-9.935 8.030-17.965 17.965-17.965h17.965c9.935 0 17.965 8.030 17.965 17.965s-8.030 17.965-17.965 17.965h-17.965c-9.935 0-17.965-8.030-17.965-17.965zM925.193 942.035v17.965h-826.386v-17.965c0-122.934 124.479-233.67 287.439-272.582v-81.902c-85.351-45.11-143.719-134.719-143.719-237.802 0-38.553 8.3-75.165 22.995-108.346h-61.458c-22.582 0-43.798-11.030-56.751-29.534-12.935-18.486-16.061-42.2-8.336-63.398l51.11-140.611h85.064c-7.437-20.857-27.199-35.93-50.589-35.93-9.935 0-17.965-8.030-17.965-17.965s8.030-17.965 17.965-17.965c43.367 0 79.656 30.918 88.010 71.86h416.822c8.354-40.942 44.625-71.86 88.010-71.86 9.935 0 17.965 8.030 17.965 17.965s-8.030 17.965-17.965 17.965c-23.39 0-43.152 15.073-50.589 35.93h85.064l51.128 140.611c7.725 21.217 4.599 44.912-8.336 63.398-12.971 18.504-34.187 29.534-56.751 29.534h-80.555c14.677 33.181 22.995 69.794 22.995 108.346 0 102.634-57.847 191.955-142.605 237.263v82.441c162.96 38.912 287.439 149.648 287.439 272.582zM135.94 924.070h752.101c-12.108-91.118-114.616-185.937-260.294-220.142l-11.695-2.479c-14.462-3.054-29.067-5.336-43.727-7.096-4.509-0.539-9-1.078-13.581-1.491-5.192-0.485-10.402-0.898-15.612-1.222-8.318-0.503-16.707-0.826-25.205-0.916-3.97-0.036-7.958-0.036-11.929 0-8.497 0.090-16.887 0.413-25.205 0.916-5.21 0.323-10.42 0.737-15.612 1.222-4.563 0.413-9.072 0.952-13.581 1.491-14.659 1.761-29.265 4.042-43.727 7.096l-11.695 2.479c-145.606 34.205-248.113 129.024-260.24 220.142zM738.106 205.474h99.813c11.030 0 20.983-5.174 27.325-14.21 6.324-9.036 7.797-20.139 4.024-30.504l-42.541-116.97h-611.49l-42.523 116.97c-3.773 10.366-2.3 21.468 4.024 30.504s16.276 14.21 27.307 14.21h80.716c0.323-0.521 0.701-0.988 1.024-1.491 2.138-3.288 4.365-6.503 6.629-9.701 2.084-2.91 4.24-5.749 6.413-8.569 3.629-4.689 7.384-9.234 11.318-13.653 2.425-2.749 4.851-5.479 7.384-8.12 2.838-2.964 5.767-5.857 8.749-8.695 2.084-1.976 4.222-3.88 6.36-5.785 5.659-5.048 11.516-9.845 17.588-14.426 1.671-1.258 3.306-2.533 5.012-3.755 3.898-2.785 7.851-5.479 11.893-8.066 1.168-0.755 2.371-1.437 3.557-2.174 7.491-4.635 15.234-8.893 23.193-12.773 1.725-0.844 3.449-1.707 5.21-2.515 4.312-1.994 8.641-3.934 13.078-5.695 2.21-0.88 4.491-1.635 6.719-2.461 6.593-2.425 13.258-4.635 20.085-6.557 3.916-1.114 7.851-2.12 11.821-3.054 3.054-0.701 6.090-1.491 9.198-2.084 6.952-1.383 13.995-2.407 21.073-3.234 2.156-0.252 4.33-0.431 6.503-0.629 7.923-0.719 15.863-1.204 23.893-1.204s15.971 0.485 23.893 1.204c2.174 0.198 4.33 0.377 6.503 0.629 7.078 0.826 14.12 1.85 21.073 3.234 3.108 0.611 6.126 1.383 9.198 2.084 3.97 0.934 7.905 1.94 11.821 3.054 6.827 1.904 13.492 4.132 20.085 6.557 2.246 0.826 4.509 1.581 6.719 2.461 4.437 1.761 8.767 3.701 13.078 5.695 1.743 0.808 3.467 1.671 5.21 2.515 7.958 3.898 15.683 8.138 23.193 12.773 1.186 0.737 2.389 1.419 3.557 2.174 4.042 2.587 7.994 5.264 11.893 8.066 1.707 1.222 3.359 2.515 5.048 3.773 6.054 4.563 11.911 9.36 17.57 14.408 2.138 1.904 4.276 3.809 6.36 5.785 2.982 2.838 5.892 5.713 8.749 8.695 2.533 2.641 4.958 5.372 7.384 8.12 3.916 4.437 7.689 8.982 11.318 13.653 2.174 2.82 4.348 5.659 6.413 8.569 2.282 3.198 4.491 6.413 6.629 9.701 0.252 0.503 0.629 0.97 0.952 1.491zM744.43 349.75c0-39.882-10.096-77.447-27.846-110.305l-2.030-3.467c-1.401-2.515-2.982-4.904-4.473-7.366-3.719-6.072-7.671-11.929-11.875-17.57-1.258-1.689-2.479-3.395-3.773-5.048-2.461-3.126-4.994-6.162-7.599-9.126-1.347-1.545-2.749-3.036-4.132-4.545-5.407-5.857-11.048-11.444-16.995-16.707-0.683-0.593-1.329-1.24-2.012-1.832-3.359-2.91-6.809-5.677-10.312-8.39-0.988-0.755-1.994-1.491-3-2.246-11.12-8.282-22.923-15.576-35.301-21.773-1.060-0.521-2.12-1.024-3.18-1.527-7.15-3.449-14.498-6.503-21.989-9.198-1.509-0.539-2.982-1.132-4.491-1.653-3.539-1.204-7.114-2.246-10.707-3.27-3.234-0.916-6.503-1.743-9.791-2.533-3.27-0.772-6.521-1.563-9.827-2.192-5.551-1.060-11.156-1.922-16.851-2.587-2.048-0.234-4.114-0.431-6.18-0.629-6.809-0.593-13.671-1.042-20.624-1.042s-13.815 0.449-20.624 1.042c-2.066 0.18-4.132 0.377-6.18 0.629-5.677 0.647-11.3 1.527-16.851 2.587-3.306 0.647-6.575 1.419-9.845 2.192-3.288 0.772-6.557 1.599-9.791 2.515-3.593 1.024-7.168 2.084-10.707 3.288-1.509 0.503-2.982 1.114-4.491 1.653-7.491 2.713-14.821 5.749-21.989 9.198-1.060 0.503-2.138 1.006-3.18 1.527-12.378 6.18-24.181 13.492-35.301 21.773-1.006 0.755-2.012 1.473-3 2.246-3.503 2.713-6.97 5.479-10.312 8.39-0.683 0.593-1.329 1.222-1.994 1.814-5.946 5.264-11.605 10.851-17.013 16.725-1.383 1.509-2.785 3-4.132 4.545-2.605 2.982-5.138 6.018-7.599 9.126-1.293 1.653-2.533 3.359-3.773 5.048-4.204 5.641-8.174 11.498-11.875 17.57-1.491 2.461-3.072 4.851-4.473 7.366l-2.030 3.467c-17.731 32.858-27.846 70.404-27.846 110.305 0 93.202 55.134 173.559 134.378 210.782 7.563 3.539 15.234 6.683 23.031 9.378 0.162 0.054 0.305 0.126 0.467 0.18 41.032 14.049 84.758 16.294 126.617 6.737 0.018 0 0.036-0.018 0.054-0.018 8.228-1.886 16.384-4.24 24.414-7.024 0.377-0.126 0.737-0.269 1.096-0.395 7.653-2.695 15.198-5.821 22.618-9.342 78.668-37.475 133.318-117.526 133.318-210.297zM601.825 602.84c-0.862 0.305-1.725 0.521-2.587 0.808-5.102 1.779-10.258 3.395-15.504 4.868-3.27 0.916-6.539 1.743-9.827 2.533-4.294 1.024-8.569 2.030-12.935 2.856-4.797 0.916-9.629 1.563-14.48 2.21-3.252 0.431-6.449 0.952-9.737 1.276-8.39 0.79-16.815 1.276-25.313 1.276-8.444 0-16.851-0.485-25.187-1.276-3.234-0.305-6.413-0.826-9.611-1.24-4.833-0.647-9.665-1.311-14.444-2.21-4.276-0.79-8.479-1.761-12.683-2.749-3.324-0.79-6.629-1.635-9.917-2.551-5.12-1.419-10.168-2.964-15.162-4.689-0.755-0.252-1.509-0.431-2.246-0.701v58.925c14.48-2.425 29.193-4.312 44.104-5.569 0.359-0.036 0.719-0.072 1.078-0.108 14.713-1.222 29.606-1.904 44.625-1.904s29.912 0.683 44.643 1.904c0.359 0.036 0.719 0.072 1.078 0.108 14.911 1.258 29.624 3.144 44.104 5.569v-59.338zM493.837 744.421c0.072 0 0.144 0 0.198 0 9.935 0 17.965 8.048 17.965 17.965 0 9.935-8.048 17.965-17.965 17.965-0.072 0-0.126 0-0.198 0-45.056 0-86.303 6.827-122.575 20.282-9.306 3.467-19.636-1.293-23.085-10.599s1.293-19.636 10.599-23.085c40.295-14.947 85.729-22.528 135.060-22.528zM296.421 870.66c-0.269 9.935-8.857 17.893-18.45 17.48-9.917-0.287-17.731-8.533-17.48-18.45 0.647-23.732 12.019-46.601 32.031-64.35 3.413-3.036 7.689-4.527 11.929-4.527 4.94 0 9.899 2.030 13.438 6.036 6.575 7.42 5.91 18.791-1.509 25.366-12.504 11.084-19.582 24.756-19.959 38.445z" />
<glyph unicode="&#xe930;" glyph-name="delivery-truck" d="M837.174 286.612c-25.021 0-48.792-9.8-66.724-27.524-17.932-17.932-27.941-41.285-27.941-66.307s9.8-48.375 27.941-66.307c18.141-17.723 41.702-27.524 66.724-27.524 51.294 0 92.996 42.119 92.996 93.83s-41.702 93.83-92.996 93.83zM837.174 140.654c-28.775 0-52.962 23.77-52.962 52.128s24.187 52.128 52.962 52.128c28.358 0 51.294-23.353 51.294-52.128s-22.936-52.128-51.294-52.128zM861.361 599.171c-3.753 3.545-8.757 5.421-13.97 5.421h-106.966c-11.468 0-20.851-9.383-20.851-20.851v-170.979c0-11.468 9.383-20.851 20.851-20.851h169.728c11.468 0 20.851 9.383 20.851 20.851v114.473c0 5.838-2.502 11.468-6.881 15.43l-62.762 56.507zM889.302 433.613h-128.026v129.486h77.983l50.043-45.038v-84.447zM327.989 286.612c-25.021 0-48.792-9.8-66.724-27.524-17.932-17.932-27.941-41.285-27.941-66.307s9.8-48.375 27.941-66.307c18.141-17.723 41.702-27.524 66.724-27.524 51.294 0 92.996 42.119 92.996 93.83s-41.702 93.83-92.996 93.83zM327.989 140.654c-28.775 0-52.962 23.77-52.962 52.128s24.187 52.128 52.962 52.128c28.358 0 51.294-23.353 51.294-52.128s-22.936-52.128-51.294-52.128zM188.911 260.965h-41.911v55.464c0 11.468-9.383 20.851-20.851 20.851s-20.851-9.383-20.851-20.851v-76.315c0-11.468 9.383-20.851 20.851-20.851h62.762c11.468 0 20.851 9.383 20.851 20.851s-9.383 20.851-20.851 20.851zM294.627 374.604c0 11.468-9.383 20.851-20.851 20.851h-252.924c-11.468 0-20.851-9.383-20.851-20.851s9.383-20.851 20.851-20.851h252.924c11.468 0 20.851 9.175 20.851 20.851zM63.179 449.877l252.924-1.46c11.468 0 20.851 9.175 21.060 20.643 0.209 11.677-9.175 21.060-20.643 21.060l-252.924 1.46c-0.209 0-0.209 0-0.209 0-11.468 0-20.851-9.175-20.851-20.643-0.209-11.677 9.175-21.060 20.643-21.060zM105.715 544.541h252.924c11.468 0 20.851 9.383 20.851 20.851s-9.383 20.851-20.851 20.851h-252.924c-11.468 0-20.851-9.383-20.851-20.851s9.383-20.851 20.851-20.851zM1016.285 572.69v0l-149.294 123.647c-3.753 3.128-8.34 4.796-13.345 4.796h-175.567v75.064c0 11.468-9.383 20.851-20.851 20.851h-531.079c-11.468 0-20.851-9.383-20.851-20.851v-152.63c0-11.468 9.383-20.851 20.851-20.851s20.851 9.383 20.851 20.851v131.779h489.585v-494.381h-170.979c-11.468 0-20.851-9.383-20.851-20.851s9.383-20.851 20.851-20.851h254.593c11.468 0 20.851 9.383 20.851 20.851s-9.383 20.851-20.851 20.851h-41.911v398.465h168.060l135.95-112.596-1.46-285.452h-21.685c-11.468 0-20.851-9.383-20.851-20.851s9.383-20.851 20.851-20.851h42.328c11.468 0 20.851 9.175 20.851 20.643l1.668 316.103c-0.209 6.255-2.919 12.302-7.715 16.264z" />
<glyph unicode="&#xe931;" glyph-name="printer" d="M951.868 743.542h-191.168v107.888c0 11.99-9.724 21.714-21.714 21.714h-453.972c-11.99 0-21.714-9.724-21.714-21.714v-107.89h-191.168c-39.774 0.002-72.132-32.358-72.132-72.132v-345.674c0-39.774 32.358-72.134 72.132-72.134h191.168v-209.030c0-11.99 9.724-21.714 21.714-21.714h453.974c11.99 0 21.714 9.724 21.714 21.714v209.030h191.168c39.772 0 72.132 32.358 72.132 72.134v345.674c-0.002 39.774-32.362 72.134-72.134 72.134zM760.698 700.116h51.794v-60.77h-51.794v60.77zM306.726 829.716h410.546v-190.372h-410.546v190.372zM211.506 700.114h51.794v-60.77h-51.794v60.77zM717.274 66.284h-410.548v285.958h410.546v-285.958zM980.576 325.734h-0.002c0-15.83-12.878-28.708-28.704-28.708h-191.17v55.214h39.61c11.99 0 21.714 9.724 21.714 21.714s-9.724 21.714-21.714 21.714h-576.618c-11.99 0-21.714-9.724-21.714-21.714s9.724-21.714 21.714-21.714h39.61v-55.214h-191.17c-15.826 0-28.704 12.878-28.704 28.708v345.674c0 15.828 12.878 28.708 28.704 28.708h95.948v-82.482c0-11.99 9.722-21.714 21.714-21.714h644.414c11.99 0 21.714 9.724 21.714 21.714v82.482h95.948c15.826 0 28.706-12.878 28.706-28.708v-345.674zM164.802 521.478c0-15.024-12.18-27.204-27.204-27.204s-27.204 12.18-27.204 27.204c0 15.024 12.18 27.204 27.204 27.204s27.204-12.18 27.204-27.204zM505.698 187.088h-101.36c-11.99 0-21.714-9.72-21.714-21.714 0-11.99 9.722-21.714 21.714-21.714h101.36c11.99 0 21.714 9.724 21.714 21.714 0 11.994-9.724 21.714-21.714 21.714zM619.662 297.034h-215.324c-11.99 0-21.714-9.724-21.714-21.714 0-11.992 9.722-21.714 21.714-21.714h215.322c11.99 0 21.714 9.722 21.714 21.714 0 11.99-9.722 21.714-21.712 21.714z" />
<glyph unicode="&#xe932;" glyph-name="laboratory" d="M768 637.44v151.893h61.44c22.187 0 40.96 22.187 40.96 51.2v102.4c0 10.24-6.827 17.067-17.067 17.067h-375.467c-10.24 0-17.067-6.827-17.067-17.067v-102.4c0-29.013 18.773-51.2 40.96-51.2h61.44v-151.893c-151.893-46.080-256-184.32-256-343.040 0-197.973 160.427-358.4 358.4-358.4s358.4 160.427 358.4 358.4c0 158.72-104.107 298.667-256 343.040zM494.933 840.533v17.067h238.933v34.133h-238.933v34.133h341.333v-85.333c0-10.24-5.12-17.067-6.827-17.067h-327.68c-1.707 0-6.827 6.827-6.827 17.067zM665.6-29.867c-179.2 0-324.267 145.067-324.267 324.267 0 146.773 98.987 276.48 242.347 312.32 8.533 1.707 13.653 8.533 13.653 17.067v165.547h136.533v-165.547c0-8.533 6.827-15.36 13.653-17.067 141.653-35.84 242.347-165.547 242.347-312.32 0-179.2-145.067-324.267-324.267-324.267zM921.6 311.467h-512c-10.24 0-17.067-6.827-17.067-17.067 0-150.187 122.88-273.067 273.067-273.067s273.067 122.88 273.067 273.067c0 10.24-6.827 17.067-17.067 17.067zM665.6 55.467c-126.293 0-230.4 97.28-238.933 221.867h477.867c-10.24-124.587-112.64-221.867-238.933-221.867zM68.267-12.8v392.533h204.8v34.133h-238.933v34.133h273.067v34.133h-290.133c-10.24 0-17.067-6.827-17.067-17.067v-68.267c0-10.24 6.827-17.067 17.067-17.067h17.067v-392.533c0-29.013 22.187-51.2 51.2-51.2h341.333v34.133h-341.333c-10.24 0-17.067 6.827-17.067 17.067zM204.8 243.2v34.133h-51.2v51.2h-34.133v-307.2h34.133v51.2h51.2v34.133h-51.2v51.2h51.2v34.133h-51.2v51.2zM512 243.2h34.133v-34.133h-34.133v34.133zM529.067 430.933h34.133v-34.133h-34.133v34.133zM665.6 413.867h34.133v-34.133h-34.133v34.133zM614.4 533.333h34.133v-34.133h-34.133v34.133zM51.2 567.467h34.133v-34.133h-34.133v34.133zM256 567.467h34.133v-34.133h-34.133v34.133zM153.6 652.8h34.133v-34.133h-34.133v34.133zM238.933 755.2h34.133v-34.133h-34.133v34.133zM68.267 789.333h34.133v-34.133h-34.133v34.133zM750.933 465.067h34.133v-34.133h-34.133v34.133zM853.333 379.733h34.133v-34.133h-34.133v34.133zM426.667 379.733h34.133v-34.133h-34.133v34.133zM563.2 174.933h34.133v-34.133h-34.133v34.133zM648.533 226.133h34.133v-34.133h-34.133v34.133zM648.533 123.733h34.133v-34.133h-34.133v34.133zM733.867 174.933h34.133v-34.133h-34.133v34.133zM785.067 243.2h34.133v-34.133h-34.133v34.133z" />
<glyph unicode="&#xe933;" glyph-name="welding" d="M1021.898 951.798c-4.402 7.77-14.26 10.5-22.038 6.1l-129.342-73.252c-5.068-2.872-8.2-8.244-8.2-14.068v-119.048h-20.926v11.856c0 23.178-18.858 42.038-42.038 42.038-23.178 0-42.038-18.858-42.038-42.038v-56.050c0-23.18 18.858-42.038 42.038-42.038s42.038 18.858 42.038 42.038v11.856h20.926v-42.63c-21.67-1.662-38.804-19.786-38.804-41.874v-370.795c0-19.792 13.766-36.39 32.216-40.83-2.5-53.244-46.598-95.796-100.456-95.796h-89.792v544.435c0 23.178-18.858 42.038-42.038 42.038h-143.58v24.226c0 23.178-18.858 42.038-42.038 42.038h-210.174c-23.178 0-42.038-18.858-42.038-42.038v-24.226h-143.578c-23.18 0-42.038-18.858-42.038-42.038v-641.479c0-22.566 17.888-40.986 40.222-41.946v-10.24c0-23.18 18.858-42.038 42.038-42.038h84.066c23.18 0 42.038 18.858 42.038 42.038v10.148h21.23c8.932 0 16.168 7.238 16.168 16.168s-7.236 16.168-16.168 16.168h-187.556c-5.348 0-9.702 4.352-9.702 9.702v455.923h417.147c8.932 0 16.168 7.238 16.168 16.168s-7.236 16.168-16.168 16.168h-417.145v153.22c0 5.35 4.352 9.7 9.702 9.7h581.403c5.348 0 9.7-4.35 9.7-9.7v-153.22h-129.764c-8.932 0-16.168-7.236-16.168-16.168s7.238-16.168 16.168-16.168h129.764v-358.879h-59.894c-6.992 23.648-28.898 40.96-54.782 40.96-31.5 0-57.128-25.628-57.128-57.128s25.628-57.128 57.128-57.128c25.886 0 47.792 17.312 54.782 40.96h59.894v-64.708c0-5.348-4.352-9.702-9.7-9.702h-342.107c-8.932 0-16.168-7.236-16.168-16.168s7.236-16.168 16.168-16.168h175.78v-10.148c0-23.18 18.858-42.038 42.038-42.038h84.068c23.18 0 42.038 18.858 42.038 42.038v10.24c22.334 0.962 40.222 19.38 40.222 41.946v64.708h89.792c71.666 0 130.234 57.020 132.79 128.068 18.572 4.352 32.46 21.014 32.46 40.896v224.582c0 8.932-7.236 16.168-16.168 16.168s-16.168-7.236-16.168-16.168v-104.046h-32.336v250.26c0 5.35 4.352 9.702 9.7 9.702h12.934c5.348 0 9.7-4.35 9.7-9.702v-94.476c0-8.932 7.238-16.168 16.168-16.168s16.168 7.236 16.168 16.168v94.476c0 17.452-10.694 32.446-25.87 38.796v45.712h9.702c8.932 0 16.168 7.236 16.168 16.168s-7.236 16.168-16.168 16.168h-9.702v109.618l121.142 68.606c7.774 4.4 10.506 14.268 6.106 22.040zM809.054 707.336c0-5.348-4.352-9.702-9.702-9.702s-9.702 4.352-9.702 9.702v56.050c0 5.35 4.352 9.702 9.702 9.702s9.702-4.35 9.702-9.702v-56.050zM72.56-11.814h103.468v-10.148c0-5.348-4.352-9.702-9.702-9.702h-84.064c-5.348 0-9.702 4.352-9.702 9.702v10.148zM447.529 723.054h-229.574v14.914c0 5.35 4.352 9.702 9.702 9.702h210.172c5.348 0 9.702-4.35 9.702-9.702v-14.914zM518.467 94.93h18.75c-4.548-5.268-11.26-8.624-18.75-8.624-13.67 0-24.792 11.122-24.792 24.792s11.122 24.792 24.792 24.792c7.492 0 14.202-3.354 18.75-8.624h-18.75c-8.932 0-16.168-7.236-16.168-16.168-0.002-8.93 7.236-16.168 16.168-16.168zM592.921-21.96c0-5.348-4.352-9.702-9.702-9.702h-84.066c-5.348 0-9.702 4.352-9.702 9.702v10.148h103.468v-10.148zM855.85 352.091h32.336v-88.198c0-5.348-4.352-9.702-9.702-9.702h-12.934c-5.348 0-9.702 4.352-9.702 9.702v88.198zM551.881 599.417c0 31.5-25.628 57.128-57.128 57.128s-57.128-25.628-57.128-57.128c0-31.5 25.628-57.128 57.128-57.128s57.128 25.628 57.128 57.128zM469.961 599.417c0 13.67 11.122 24.792 24.792 24.792s24.792-11.122 24.792-24.792c0-13.67-11.122-24.792-24.792-24.792-13.67 0.002-24.792 11.122-24.792 24.792zM274.487 599.417c0-31.5 25.628-57.128 57.128-57.128s57.128 25.628 57.128 57.128c0 31.5-25.628 57.128-57.128 57.128s-57.128-25.626-57.128-57.128zM356.407 599.417c0-13.67-11.122-24.792-24.792-24.792s-24.792 11.122-24.792 24.792c0 13.67 11.122 24.792 24.792 24.792s24.792-11.122 24.792-24.792zM111.356 599.417c0-31.5 25.628-57.128 57.128-57.128s57.128 25.628 57.128 57.128c0 31.5-25.628 57.128-57.128 57.128-31.5 0.002-57.128-25.626-57.128-57.128zM193.276 599.417c0-13.67-11.122-24.792-24.792-24.792s-24.792 11.122-24.792 24.792c0 13.67 11.122 24.792 24.792 24.792s24.792-11.122 24.792-24.792zM132.616 375.459h249.718c8.932 0 16.168 7.236 16.168 16.168s-7.236 16.168-16.168 16.168h-249.718c-8.932 0-16.168-7.238-16.168-16.168 0-8.928 7.236-16.168 16.168-16.168zM132.616 307.085h249.718c8.932 0 16.168 7.236 16.168 16.168s-7.236 16.168-16.168 16.168h-249.718c-8.932 0-16.168-7.236-16.168-16.168 0-8.93 7.236-16.168 16.168-16.168zM132.616 238.711h249.718c8.932 0 16.168 7.236 16.168 16.168 0 8.93-7.236 16.168-16.168 16.168h-249.718c-8.932 0-16.168-7.24-16.168-16.168 0-8.93 7.236-16.168 16.168-16.168zM132.616 170.338h249.718c8.932 0 16.168 7.236 16.168 16.168 0 8.93-7.236 16.168-16.168 16.168h-249.718c-8.932 0-16.168-7.24-16.168-16.168 0-8.932 7.236-16.168 16.168-16.168zM132.616 101.962h249.718c8.932 0 16.168 7.238 16.168 16.168s-7.236 16.168-16.168 16.168h-249.718c-8.932 0-16.168-7.236-16.168-16.168s7.236-16.168 16.168-16.168zM489.363 204.521h58.206c8.932 0 16.168 7.238 16.168 16.168s-7.238 16.168-16.168 16.168h-58.206c-8.932 0-16.168-7.236-16.168-16.168 0-8.928 7.236-16.168 16.168-16.168zM547.569 305.233h-58.206c-8.932 0-16.168-7.236-16.168-16.168s7.236-16.168 16.168-16.168h58.206c8.932 0 16.168 7.236 16.168 16.168 0 8.93-7.236 16.168-16.168 16.168zM547.569 373.607h-58.206c-8.932 0-16.168-7.236-16.168-16.168s7.236-16.168 16.168-16.168h58.206c8.932 0 16.168 7.236 16.168 16.168 0 8.93-7.236 16.168-16.168 16.168z" />
<glyph unicode="&#xe934;" glyph-name="toy-machine" d="M864.76 200.294c0 0.644-0.046 1.278-0.117 1.902-0.018 0.148-0.046 0.294-0.066 0.44-0.071 0.498-0.159 0.986-0.274 1.469-0.015 0.069-0.022 0.137-0.038 0.203l-14.343 57.377c-3.822 15.289-17.496 25.969-33.257 25.969h-4.985v535.74c20.546 6.94 35.387 26.385 35.387 49.245v70.773c0 9.161-7.427 16.587-16.587 16.587h-636.959c-9.161 0-16.587-7.427-16.587-16.587v-70.773c0-22.86 14.84-42.305 35.387-49.245v-535.74h-4.983c-15.76 0-29.437-10.678-33.257-25.967l-14.343-57.377c-0.018-0.066-0.022-0.137-0.038-0.203-0.113-0.482-0.203-0.971-0.274-1.469-0.022-0.148-0.051-0.294-0.066-0.44-0.073-0.628-0.119-1.261-0.119-1.904 0-0.002 0-0.002 0-0.002 0-0.002 0-0.002 0-0.002v-247.702c0-9.161 7.427-16.587 16.587-16.587h672.346c9.161 0 16.587 7.427 16.587 16.587v247.7c0 0 0 0.002 0 0.002s0 0.002 0 0.004zM245.495 341.84c0 29.877 24.308 54.186 54.186 54.186 11.249 0 21.966-3.419 30.992-9.74-7.734-13.031-12.193-28.225-12.193-44.446 0-16.229 4.463-31.43 12.204-44.465-9.010-6.323-19.708-9.722-31.003-9.722-29.877 0.002-54.186 24.308-54.186 54.188zM495.413 820.665v-37.598h-54.186c-9.161 0-16.587-7.427-16.587-16.587s7.427-16.587 16.587-16.587h1.106v-43.935l-35.338-17.669c-22.353-11.178-33.595-36.734-26.73-60.765l27.318-95.615c2.081-7.285 8.723-12.034 15.942-12.034 1.508 0 3.043 0.208 4.565 0.644 8.807 2.517 13.909 11.697 11.392 20.507l-27.318 95.615c-2.484 8.692 1.584 17.937 9.669 21.98l32.122 16.061 41.458-55.276v-118.324c0-9.161 7.427-16.587 16.587-16.587s16.587 7.427 16.587 16.587v118.324l41.455 55.276 32.124-16.063c8.086-4.043 12.153-13.288 9.669-21.98l-27.318-95.615c-2.517-8.809 2.583-17.99 11.392-20.507 1.524-0.436 3.057-0.644 4.565-0.644 7.217 0 13.858 4.748 15.942 12.034l27.318 95.615c6.865 24.032-4.377 49.588-26.73 60.765l-35.338 17.671v43.935h1.106c9.161 0 16.587 7.427 16.587 16.587s-7.427 16.587-16.587 16.587h-54.186v37.598h249.918v-410.376c-14.904 11.824-33.728 18.912-54.186 18.912-19.938 0-38.326-6.728-53.045-18.014-15.174 11.671-33.655 18.014-53.115 18.014-19.23 0-37.957-6.458-53.102-18.025-14.721 11.293-33.113 18.025-53.058 18.025s-38.337-6.732-53.058-18.023c-15.145 11.565-33.874 18.023-53.102 18.023-19.938 0-38.326-6.728-53.045-18.014-15.174 11.673-33.653 18.014-53.115 18.014-20.458 0-39.281-7.088-54.186-18.912v410.376h249.918zM548.492 701.238l-19.905-26.54v75.194h19.905v-48.654zM495.413 674.695l-19.905 26.54v48.657h19.905v-75.197zM351.654 341.84c0 29.877 24.308 54.186 54.186 54.186 11.295 0 21.995-3.397 31.003-9.72-7.741-13.036-12.204-28.236-12.204-44.465 0-16.214 4.454-31.401 12.182-44.428-9.015-6.283-19.805-9.76-30.981-9.76-29.877 0.002-54.186 24.308-54.186 54.188zM457.814 341.84c0 29.877 24.308 54.186 54.186 54.186s54.186-24.308 54.186-54.186c0-29.88-24.308-54.186-54.186-54.186s-54.186 24.306-54.186 54.186zM587.157 297.375c7.741 13.036 12.204 28.236 12.204 44.465s-4.463 31.43-12.206 44.465c9.008 6.323 19.706 9.72 31.005 9.72 11.249 0 21.966-3.419 30.992-9.74-7.734-13.031-12.193-28.225-12.193-44.446 0-16.225 4.461-31.421 12.197-44.454-9.017-6.323-19.724-9.734-30.999-9.734-11.293 0.002-21.993 3.399-31.001 9.722zM670.134 341.84c0 29.877 24.308 54.186 54.186 54.186s54.186-24.308 54.186-54.186c0-29.88-24.308-54.186-54.186-54.186s-54.186 24.306-54.186 54.186zM210.108 926.825h603.784v-54.186c0-10.366-8.433-18.799-18.799-18.799h-566.186c-10.366 0-18.799 8.433-18.799 18.799v54.186zM207.337 254.479h609.329c0.509 0 0.949-0.343 1.073-0.836l9.189-36.762h-629.855l9.189 36.762c0.124 0.491 0.566 0.836 1.075 0.836zM404.734 183.706h214.531v-18.799c0-10.366-8.433-18.799-18.799-18.799h-176.933c-10.366 0-18.799 8.433-18.799 18.799v18.799zM192.415-30.825v214.531h179.145v-18.799c0-28.659 23.315-51.974 51.974-51.974h176.933c28.659 0 51.974 23.315 51.974 51.974v18.799h179.145v-214.531h-639.171z" />
<glyph unicode="&#xe935;" glyph-name="sound-cable" d="M962.207 606.897h-17.655v105.931c0 29.202-23.764 52.966-52.966 52.966s-52.966-23.764-52.966-52.966v-105.931h-17.655v-158.897h17.655v-88.276h35.31v-46.751c0-121.662-63.029-244.083-199.521-303.916 57.309 51.73 93.59 126.323 93.59 209.426 0 155.754-126.729 282.483-282.483 282.483s-282.483-126.729-282.483-282.483c0-57.45 17.337-110.892 46.927-155.542-61.458 59.304-99.893 142.318-99.893 234.266v256.724h35.31v88.276h17.655v158.897h-17.655v105.931c0 29.202-23.764 52.966-52.966 52.966s-52.966-23.764-52.966-52.966v-105.931h-17.655v-158.897h17.655v-88.276h35.31v-273.902h0.406c9.004-191.223 167.389-344.029 360.801-344.029 2.33 0 4.608 0.106 6.938 0.141 0.883 0 1.73-0.141 2.613-0.141 1.942 0 3.814 0.247 5.756 0.3 246.872 6.091 417.969 159.197 417.969 376.673v46.751h35.31v88.276h17.655v158.897zM97.103 765.793h70.621v-88.276h-70.621v88.276zM132.414 924.69c9.728 0 17.655-7.91 17.655-17.655v-17.655h-35.31v17.655c0 9.746 7.927 17.655 17.655 17.655zM114.759 854.069h35.31v-52.966h-35.31v52.966zM114.759 642.207h35.31v-52.966h-35.31v52.966zM491.573-28.39c-2.895-0.071-5.791-0.141-8.722-0.177-105.843 1.465-191.541 87.905-191.541 194.083 0 107.079 87.128 194.207 194.207 194.207s194.207-87.128 194.207-194.207c0-105.048-83.88-190.658-188.151-193.907zM485.517 465.655c136.298 0 247.172-110.874 247.172-247.172 0-37.729-8.757-73.375-23.94-105.401 3.972 16.861 6.285 34.375 6.285 52.436 0 126.552-102.965 229.517-229.517 229.517s-229.517-102.965-229.517-229.517c0-18.061 2.313-35.575 6.285-52.436-15.183 32.026-23.94 67.672-23.94 105.401 0 136.298 110.874 247.172 247.172 247.172zM926.897 483.31h-70.621v88.276h70.621v-88.276zM891.586 730.483c9.728 0 17.655-7.91 17.655-17.655v-17.655h-35.31v17.655c0 9.746 7.927 17.655 17.655 17.655zM873.931 659.862h35.31v-52.966h-35.31v52.966zM909.241 395.034h-35.31v52.966h35.31v-52.966z" />
<glyph unicode="&#xe936;" glyph-name="lawnmower" d="M1006.732 825.368h-70.559c-6.3 0-12.6-2.52-15.12-7.56h-25.2c-6.3 0-11.34-3.78-12.6-10.080l-69.299-301.138-139.859-15.12v34.020c0 41.58-34.020 76.859-76.859 76.859h-241.918c-41.58 0-76.859-34.020-76.859-76.859v-76.859l-59.22-6.3c-54.18-6.3-95.759-51.66-98.279-105.839-68.039-6.3-120.959-62.999-120.959-132.299 0-73.079 59.22-133.559 133.559-133.559 69.299 0 125.999 52.92 132.299 120.959h361.617c6.3-68.039 62.999-120.959 132.299-120.959 73.079 0 133.559 59.22 133.559 133.559 0 60.48-40.32 110.879-95.759 127.259l105.839 461.156h13.86c3.78-5.040 8.82-7.56 15.12-7.56h70.559c11.34 0 20.16 8.82 20.16 20.16 3.78 11.34-5.040 20.16-16.38 20.16zM356.577 577.15h241.918c27.72 0 51.66-22.68 51.66-51.66v-36.54l-81.899-8.82v47.88c0 7.56-5.040 12.6-12.6 12.6s-12.6-5.040-12.6-12.6v-51.66l-28.98-3.78v54.18c0 7.56-5.040 12.6-12.6 12.6s-12.6-5.040-12.6-12.6v-56.7l-28.98-3.78v60.48c0 7.56-5.040 12.6-12.6 12.6s-12.6-5.040-12.6-12.6v-62.999l-28.98-3.78v65.519c0 7.56-5.040 12.6-12.6 12.6s-12.6-5.040-12.6-12.6v-65.519c0-1.26 0-1.26 0-2.52l-74.339-7.56v75.599h-1.26c0 27.72 22.68 51.66 51.66 51.66zM134.819 95.834c-59.22 0-108.359 47.88-108.359 108.359s47.88 108.359 108.359 108.359c60.48 0 108.359-47.88 108.359-108.359s-47.88-108.359-108.359-108.359zM870.653 204.193c0-59.22-47.88-108.359-108.359-108.359-59.22 0-108.359 47.88-108.359 108.359s47.88 108.359 108.359 108.359c59.22-1.26 108.359-49.14 108.359-108.359zM776.154 335.232c-5.040 1.26-8.82 1.26-13.86 1.26-69.299 0-125.999-52.92-132.299-120.959h-361.617c-6.3 62.999-56.7 113.399-119.699 119.699 2.52 41.58 34.020 75.599 75.599 80.639l584.635 64.259-32.76-144.899zM134.819 264.673c-34.020 0-60.48-27.72-60.48-60.48s27.72-60.48 60.48-60.48 60.48 27.72 60.48 60.48c0 32.76-26.46 60.48-60.48 60.48zM134.819 167.654c-20.16 0-35.28 16.38-35.28 35.28 0 20.16 16.38 35.28 35.28 35.28 20.16 0 35.28-16.38 35.28-35.28 1.26-18.9-15.12-35.28-35.28-35.28zM762.294 264.673c-34.020 0-60.48-27.72-60.48-60.48 0-34.020 27.72-60.48 60.48-60.48 34.020 0 60.48 27.72 60.48 60.48s-26.46 60.48-60.48 60.48zM762.294 168.914c-20.16 0-35.28 16.38-35.28 35.28 0 20.16 16.38 35.28 35.28 35.28 20.16 0 35.28-16.38 35.28-35.28 0-20.16-16.38-35.28-35.28-35.28z" />
<glyph unicode="&#xe937;" glyph-name="shirt" d="M470.878 872.054h83.41c8.932 0 16.168 7.24 16.168 16.168 0 8.93-7.236 16.168-16.168 16.168h-83.41c-8.932 0-16.168-7.24-16.168-16.168s7.236-16.168 16.168-16.168zM993.426 574.612l-55.634 229.214c-0.552 2.268-14.084 55.816-67.284 78.426-38.508 16.364-160.292 62.598-190.784 74.144-2.778 2.25-6.314 3.604-10.168 3.604h-312.792c-0.518 0-1.032-0.028-1.548-0.078-0.222-0.022-0.44-0.060-0.66-0.090-0.282-0.038-0.564-0.076-0.846-0.13-0.262-0.050-0.52-0.116-0.778-0.178-0.23-0.056-0.462-0.112-0.692-0.176-0.268-0.078-0.528-0.168-0.792-0.258-0.134-0.048-0.27-0.082-0.404-0.132-6.28-2.374-154.344-58.342-197.552-76.706-51.148-21.74-65.62-72.052-67.15-77.912 0-0.002 0-0.004-0.002-0.006-0.028-0.11-0.050-0.196-0.072-0.274-0.028-0.106-0.048-0.19-0.058-0.23l-39.536-162.89c0 0 0 0 0-0.002l-16.1-66.328c-1.902-7.83 2.254-15.864 9.744-18.84l158.94-63.14v-540.462c0-8.932 7.238-16.168 16.168-16.168h593.146c8.932 0 16.168 7.236 16.168 16.168v373.576c0 8.93-7.236 16.168-16.168 16.168s-16.168-7.24-16.168-16.168v-291.676h-397.364c-8.932 0-16.168-7.238-16.168-16.168s7.236-16.168 16.168-16.168h397.366v-33.394h-560.808v33.394h109.548c8.932 0 16.168 7.24 16.168 16.168 0 8.932-7.236 16.168-16.168 16.168h-109.548v664.16c0 2.95-0.806 5.842-2.332 8.366l-81.54 134.85c5.264 4.23 11.366 8.048 18.42 11.046 33.102 14.068 132.362 51.936 175.706 68.396 10.398-95.554 84.612-172.402 171.31-172.402 86.44 0 160.48 76.396 171.222 171.558 44.43-16.88 140.93-53.718 173.478-67.55 7.054-2.998 13.154-6.816 18.42-11.046l-81.538-134.848c-1.526-2.524-2.332-5.418-2.332-8.366v-318.592c0-8.932 7.238-16.168 16.168-16.168 8.932 0 16.168 7.236 16.168 16.168v112.996l158.94 63.14c7.482 2.972 11.638 11.006 9.738 18.836zM199.262 527.428l-133.946 53.212 8.312 34.24 125.632-52.69v-34.762zM199.262 693.722v-96.466l-117.908 49.45 36.268 149.422c0.046 0.182 2.248 8.52 8.188 19.068l73.452-121.474zM513.16 780.822c-63.906 0-132.074 58.33-139.55 146.842h279.104c-7.48-88.514-75.648-146.842-139.554-146.842zM824.744 693.722l73.454 121.478c3.89-6.906 6.18-12.862 7.3-16.182 0.002-0.010 0.006-0.020 0.010-0.030 0.106-0.314 0.198-0.6 0.284-0.864 0.016-0.050 0.032-0.102 0.048-0.15 0.066-0.21 0.126-0.398 0.178-0.572 0.022-0.066 0.044-0.14 0.062-0.202 0.044-0.142 0.080-0.268 0.112-0.38 0.016-0.052 0.032-0.114 0.046-0.16 0.026-0.090 0.046-0.16 0.062-0.224 0.010-0.038 0.026-0.090 0.034-0.12 0.016-0.056 0.028-0.108 0.030-0.116l36.286-149.496-117.908-49.45v96.468zM824.744 527.428v34.762l125.632 52.69 8.31-34.242-133.942-53.21z" />
<glyph unicode="&#xe938;" glyph-name="gas-station" d="M743.225 448.003h-157.152l-90.59-126.842v-38.318h247.742v165.16zM710.196 315.876v0h-177.896l70.789 99.095h107.107v-99.095zM759.742 448.003v-165.16h247.742v38.318l-90.59 126.842h-157.152zM792.771 315.876v99.095h107.107l70.789-99.095h-177.896zM693.676 249.811h49.549v-33.033h-49.549v33.033zM445.935 101.167c-27.317 0-49.549-22.232-49.549-49.549s22.232-49.549 49.549-49.549c27.317 0 49.549 22.232 49.549 49.549s-22.229 49.549-49.549 49.549zM445.935 35.102c-9.101 0-16.516 7.398-16.516 16.516s7.415 16.516 16.516 16.516c9.101 0 16.516-7.398 16.516-16.516s-7.415-16.516-16.516-16.516zM1007.48 167.229v0.003c-58.119 0-106.233-43.174-114.29-99.095h-332.963c-8.060 55.924-56.17 99.095-114.29 99.095s-106.233-43.174-114.29-99.095h-50.874c-17.588 0-33.033 15.441-33.033 33.033v33.033h82.582v99.095h-80.764c6.292 29.811 29.169 45.335 50.458 49.778l99.625 16.613c21.552 4.329 39.127 15.805 59.739 39.623l82.152 115.049c15.195 19.44 29.582 26.672 53.049 26.672h313.804c23.453 0 37.84-7.235 52.324-25.683l33.033-49.549 27.483 18.316-33.758 50.572c-21.289 27.234-45.682 39.373-79.079 39.373h-280.771v181.683c0 67.252-50.538 122.815-115.611 130.99v50.683c0 45.536-37.046 82.582-82.582 82.582h-264.255c-45.543 0-82.585-37.046-82.585-82.582v-594.578h-82.582v-165.16h214.709v-16.516c0-35.807 30.258-66.065 66.065-66.065h50.871c3.701-25.701 15.788-48.706 33.543-66.065h-233.060v-33.033h412.902v33.033h-18.348c17.737 17.359 29.828 40.365 33.543 66.065h332.963c3.701-25.701 15.788-48.706 33.543-66.065h-233.057v-33.033h330.32v33.033h-16.516c-45.536 0-82.582 37.046-82.582 82.582s37.046 82.582 82.582 82.582h16.516v33.033h-16.516zM594.582 679.229v-33.033c0-9.118-7.415-16.516-16.516-16.516s-16.516 7.398-16.516 16.516v33.033c0 9.118 7.415 16.516 16.516 16.516 9.098 0 16.516-7.401 16.516-16.516zM512 793.352c36.22-6.125 65.784-31.892 77.313-65.979-3.635 0.843-7.367 1.405-11.248 1.405-27.317 0-49.549-22.232-49.549-49.549v-33.033c0-27.317 22.232-49.549 49.549-49.549 5.813 0 11.331 1.19 16.516 3.038v-85.62c-33.411 0-57.807-12.139-79.509-39.952l-3.073-4.311v323.55zM297.294 200.265v-33.033h-49.549v33.033h49.549zM214.713 216.778v-66.065l-181.676 0.003v99.095h186.945c-3.354-10.322-5.268-21.372-5.268-33.033zM238.395 282.843h-122.78v594.575c0 27.317 22.232 49.549 49.549 49.549h264.255c27.317 0 49.549-22.232 49.549-49.549v-453.908l-45.501-63.769c-14.831-17.078-26.145-24.84-39.803-27.58l-99.74-16.631c-22.742-4.741-41.752-16.468-55.529-32.686zM445.935-30.96c-45.536 0-82.582 37.046-82.582 82.582s37.046 82.582 82.582 82.582c45.536 0 82.582-37.046 82.582-82.582s-37.046-82.582-82.582-82.582zM957.931 51.618c0-27.317 22.232-49.549 49.549-49.549h16.516v33.033h-16.516c-9.101 0-16.516 7.398-16.516 16.516s7.415 16.516 16.516 16.516h16.516v33.033h-16.516c-27.317 0-49.549-22.232-49.549-49.549zM627.611-30.96h33.033v-33.033h-33.033v33.033zM64.002-30.96h33.033v-33.033h-33.033v33.033zM445.935 893.935h-297.287v-198.189h297.287v198.189zM412.905 728.775h-231.225v132.131h231.225c0 0 0-132.131 0-132.131zM148.647 662.713h297.287v-33.033h-297.287v33.033zM148.647 596.647h66.065v-33.033h-66.065v33.033zM379.873 596.647h66.065v-33.033h-66.065v33.033zM0.003-30.96h33.033v-33.033h-33.033v33.033z" />
<glyph unicode="&#xe939;" glyph-name="gps" d="M489.294 319.388c6.492-5.71 14.598-8.571 22.711-8.571s16.222 2.862 22.711 8.571c8.223 7.244 201.322 179.359 201.322 357.86 0 123.577-100.497 224.115-224.029 224.115-123.536 0-224.036-100.539-224.036-224.115-0.007-178.501 193.099-350.616 201.322-357.86zM512.005 735.805c32.072 0 58.079-26.21 58.079-58.558 0-32.344-26.007-58.558-58.079-58.558-32.082 0-58.085 26.217-58.085 58.558 0 32.347 26.003 58.558 58.085 58.558zM942.487 319.488l-25.952 90.943c-4.213 14.76-17.698 24.935-33.040 24.935h-185.214c-6.696-9.954-13.76-19.946-21.232-29.993-51.914-69.749-104.69-116.929-110.541-122.087-15.067-13.267-34.42-20.573-54.503-20.573-20.070 0-39.422 7.299-54.51 20.58-5.844 5.151-58.627 52.338-110.537 122.081-7.471 10.047-14.536 20.042-21.232 29.993h-185.217c-15.343 0-28.827-10.175-33.040-24.935l-30.93-108.386 691.389-126.639 174.56 144.081zM1022.683 38.428l-66.302 232.369-328.964-276.164h362.228c10.781 0 20.935 5.058 27.427 13.664 6.492 8.609 8.564 19.766 5.61 30.131zM168.23 236.343l-104.952 19.225-61.957-217.14c-2.955-10.364-0.883-21.521 5.613-30.127 6.492-8.606 16.646-13.664 27.427-13.664h133.869v241.706zM216.337 227.527v-232.89h336.256l167.509 140.619z" />
<glyph unicode="&#xe93a;" glyph-name="buffer" d="M41.229 700.288l462.285-222.52c5.363-2.58 11.612-2.58 16.975 0l462.285 222.523c14.778 7.107 14.778 28.148 0 35.258l-462.291 222.515c-5.36 2.58-11.609 2.58-16.972 0l-462.282-222.517c-14.778-7.109-14.778-28.148 0-35.258zM41.229 430.377l462.285-222.523c5.363-2.58 11.612-2.58 16.975 0l462.285 222.52c14.778 7.107 14.778 28.148 0 35.264l-97.531 46.94-309.777-149.1c-19.678-9.468-41.627-14.471-63.464-14.471s-43.78 5.003-63.494 14.485l-309.742 149.097-97.54-46.949c-14.775-7.118-14.775-28.157 0.003-35.264zM982.774 195.721l-97.531 46.949-309.777-149.109c-19.678-9.468-41.627-14.471-63.464-14.471s-43.78 5.003-63.494 14.485l-309.742 149.094-97.54-46.952c-14.778-7.115-14.778-28.148 0-35.264l462.285-222.52c5.363-2.58 11.612-2.58 16.975 0l462.285 222.52c14.781 7.118 14.781 28.154 0.003 35.266z" />
<glyph unicode="&#xe93b;" glyph-name="fill-up-arrow" d="M491.922 815.393l-487.631-707.064c-5.145-7.485-5.681-17.189-1.512-25.186 4.218-8.022 12.508-13.044 21.578-13.044h975.261c9.070 0 17.384 5.023 21.602 13.044 1.853 3.56 2.779 7.461 2.779 11.337 0 4.852-1.463 9.679-4.316 13.849l-487.631 707.064c-4.559 6.607-12.044 10.533-20.066 10.533s-15.507-3.95-20.066-10.533z" />
<glyph unicode="&#xe93c;" glyph-name="fill-down-arrow" d="M532.078 80.607l487.631 707.064c5.145 7.485 5.681 17.189 1.512 25.186-4.218 8.022-12.508 13.044-21.578 13.044h-975.261c-9.070 0-17.384-5.023-21.602-13.044-1.853-3.56-2.779-7.461-2.779-11.337 0-4.852 1.463-9.679 4.316-13.849l487.631-707.064c4.559-6.607 12.044-10.533 20.066-10.533s15.507 3.95 20.066 10.533z" />
<glyph unicode="&#xe93d;" glyph-name="map-pin" d="M512 960c-203.753 0-369.517-165.764-369.517-369.515 0-252.861 330.682-624.077 344.761-639.756 13.224-14.729 36.313-14.703 49.513 0 14.079 15.679 344.761 386.895 344.761 639.756-0.004 203.751-165.766 369.515-369.517 369.515zM512 404.571c-102.513 0-185.912 83.4-185.912 185.914s83.4 185.912 185.912 185.912 185.91-83.4 185.91-185.914-83.398-185.912-185.91-185.912z" />
<glyph unicode="&#xe93e;" glyph-name="filter" d="M1019.628 930.934c-8.244 18.876-22.511 28.315-42.87 28.326h-929.538c-20.331 0-34.619-9.45-42.85-28.326-8.226-19.843-4.84-36.798 10.172-50.834l358.031-358.021v-352.939c0-12.604 4.601-23.483 13.797-32.696l185.9-185.895c8.722-9.193 19.611-13.807 32.688-13.807 5.805 0 11.853 1.218 18.149 3.637 18.889 8.236 28.336 22.514 28.336 42.847v538.849l358.019 358.021c15.017 14.036 18.395 30.986 10.167 50.837z" />
<glyph unicode="&#xe93f;" glyph-name="sort" d="M384 960c-12.8 0-21.333-4.267-29.867-12.8l-341.333-341.333c-8.533-8.533-12.8-17.067-12.8-29.867s4.267-21.333 12.8-29.867l59.733-59.733c8.533-8.533 21.333-12.8 29.867-12.8 12.8 0 21.333 4.267 29.867 12.8v0l85.333 85.333c12.8 12.8 38.4 4.267 38.4-17.067v-576c0-21.333 21.333-42.667 42.667-42.667h85.333c21.333 0 42.667 21.333 42.667 42.667v938.667c0 12.8-4.267 21.333-12.8 29.867s-17.067 12.8-29.867 12.8zM1011.2 349.867l-59.733 59.733c-8.533 8.533-21.333 12.8-29.867 12.8-12.8 0-21.333-4.267-29.867-12.8l-85.333-85.333c-12.8-12.8-38.4-4.267-38.4 17.067v576c0 21.333-21.333 42.667-42.667 42.667h-85.333c-21.333 0-42.667-21.333-42.667-42.667v-938.667c0-12.8 4.267-21.333 12.8-29.867s21.333-12.8 29.867-12.8c12.8 0 21.333 4.267 29.867 12.8l341.333 341.333c8.533 8.533 12.8 17.067 12.8 29.867s-4.267 21.333-12.8 29.867z" />
</font>
</defs>
</svg>
